<svg xmlns="http://www.w3.org/2000/svg" version="1.1" viewBox="-5.0 -10.0 110.0 135.0">
 <path d="m83.332 50c0 18.41-14.922 33.332-33.332 33.332s-33.332-14.922-33.332-33.332 14.922-33.332 33.332-33.332 33.332 14.922 33.332 33.332zm8.3359 0c0 23.012-18.656 41.668-41.668 41.668s-41.668-18.656-41.668-41.668 18.656-41.668 41.668-41.668 41.668 18.656 41.668 41.668zm-56.379-2.2109 14.586-14.582 4.418 4.418-9.25 9.25h21.625v6.25h-21.625l9.25 9.25-4.418 4.418-14.586-14.582-2.207-2.2109z" fill-rule="evenodd"/>
<text x="0.0" y="117.5" font-size="5.0" font-weight="bold" font-family="Arbeit Regular, Helvetica, Arial-Unicode, Arial, Sans-serif" fill="#000000">Created by Helmi Salam Said</text><text x="0.0" y="122.5" font-size="5.0" font-weight="bold" font-family="Arbeit Regular, Helvetica, Arial-Unicode, Arial, Sans-serif" fill="#000000">from Noun Project</text></svg>