<svg xmlns="http://www.w3.org/2000/svg" xmlns:xlink="http://www.w3.org/1999/xlink" viewBox="0 0 142.31066447748242 142.31066447748242" height="142.31066447748242" width="142.31066447748242" data-background-color="#000000" preserveAspectRatio="xMidYMid meet" id="tight-bounds"><g><rect width="142.31066447748242" height="142.31066447748242" fill="url(#b123584c-a853-4045-bac9-abf77ab6d1a5)" mask="url(#cd5257ff-d6cb-4c79-bbf5-f1ce474a33ec)" data-fill-palette-color="tertiary"/><svg/><mask id="cd5257ff-d6cb-4c79-bbf5-f1ce474a33ec"><svg xmlns:xlink="http://www.w3.org/1999/xlink" viewBox="0 0 142.31066447748242 142.31066447748242" height="142.31066447748242" width="142.31066447748242" data-background-color="#000000" preserveAspectRatio="xMidYMid meet" id="SvgjsSvg2113"><g><svg/></g><g><svg viewBox="0 0 142.31066447748242 142.31066447748242" height="142.31066447748242" width="142.31066447748242"><g><path d="M0 71.155c0-39.298 31.857-71.155 71.155-71.155 39.298 0 71.155 31.857 71.156 71.155 0 39.298-31.857 71.155-71.156 71.156-39.298 0-71.155-31.857-71.155-71.156zM71.155 134.886c35.197 0 63.731-28.533 63.731-63.731 0-35.197-28.533-63.731-63.731-63.73-35.197 0-63.731 28.533-63.73 63.73 0 35.197 28.533 63.731 63.73 63.731z" fill="white" stroke="transparent"/><ellipse rx="68.30911894919156" ry="68.30911894919156" cx="71.15533223874121" cy="71.15533223874121" fill="white" stroke="transparent" stroke-width="0" fill-opacity="1"/></g><g transform="matrix(1,0,0,1,35.81301205431551,29.989108276746492)"><svg viewBox="0 0 70.6846403688514 82.33244792398943" height="82.33244792398943" width="70.6846403688514"><g><svg viewBox="0 0 70.6846403688514 82.33244792398943" height="82.33244792398943" width="70.6846403688514"><g><svg viewBox="0 0 70.6846403688514 82.33244792398943" height="82.33244792398943" width="70.6846403688514"><g id="SvgjsG2112"><svg viewBox="0 0 70.6846403688514 82.33244792398943" height="82.33244792398943" width="70.6846403688514" id="SvgjsSvg2111"><g><svg viewBox="0 0 70.6846403688514 82.33244792398943" height="82.33244792398943" width="70.6846403688514"><g transform="matrix(1,0,0,1,0,0)"><svg width="70.6846403688514" viewBox="2.049999952316284 -25.350000381469727 22.150001525878906 25.80000114440918" height="82.33244792398943" data-palette-color="#000000"><path d="M14.3 0.45Q8.65 0.45 5.35-2.8 2.05-6.05 2.05-11.65L2.05-11.65Q2.05-15.6 3.88-18.73 5.7-21.85 8.97-23.6 12.25-25.35 16.4-25.35L16.4-25.35Q17.9-25.35 19.53-25.15 21.15-24.95 22.28-24.7 23.4-24.45 23.7-24.4L23.7-24.4 23.9-24.1Q23.85-23.85 23.65-22.93 23.45-22 23.2-20.5 22.95-19 22.85-17.3L22.85-17.3 20.35-17.15Q20.35-17.3 20.4-17.85 20.45-18.4 20.45-19.1L20.45-19.1Q20.45-22.6 14.85-22.6L14.85-22.6Q10.95-22.6 8.7-20.03 6.45-17.45 6.45-12.95L6.45-12.95Q6.45-7.95 8.83-5 11.2-2.05 15.2-2.05L15.2-2.05Q17.85-2.05 19.43-3.48 21-4.9 21.7-7.95L21.7-7.95 24.2-8.15Q24.05-7.55 23.68-5.45 23.3-3.35 23.15-1.5L23.15-1.5 22.85-1.1Q22.55-1 21.43-0.63 20.3-0.25 18.4 0.1 16.5 0.45 14.3 0.45L14.3 0.45Z" opacity="1" transform="matrix(1,0,0,1,0,0)" fill="black" class="wordmark-text-0" id="SvgjsPath2110"/></svg></g></svg></g></svg></g></svg></g></svg></g></svg></g></svg></g><defs><mask/></defs></svg></mask><linearGradient x1="0" x2="1" y1="0.5" y2="0.5" id="b123584c-a853-4045-bac9-abf77ab6d1a5"><stop stop-color="#ffa62e" offset="0"/><stop stop-color="#f71b3d" offset="1"/></linearGradient></g><g><svg viewBox="0 0 142.31066447748242 142.31066447748242" height="142.31066447748242" width="142.31066447748242"><g><path d="M0 71.155c0-39.298 31.857-71.155 71.155-71.155 39.298 0 71.155 31.857 71.156 71.155 0 39.298-31.857 71.155-71.156 71.156-39.298 0-71.155-31.857-71.155-71.156zM71.155 134.886c35.197 0 63.731-28.533 63.731-63.731 0-35.197-28.533-63.731-63.731-63.73-35.197 0-63.731 28.533-63.73 63.73 0 35.197 28.533 63.731 63.73 63.731z" data-fill-palette-color="tertiary" fill="url(#b123584c-a853-4045-bac9-abf77ab6d1a5)" stroke="transparent"/><ellipse rx="68.30911894919156" ry="68.30911894919156" cx="71.15533223874121" cy="71.15533223874121" fill="url(#b123584c-a853-4045-bac9-abf77ab6d1a5)" stroke="transparent" stroke-width="0" fill-opacity="1" data-fill-palette-color="tertiary"/></g><g transform="matrix(1,0,0,1,35.81301205431551,29.989108276746492)"><svg viewBox="0 0 70.6846403688514 82.33244792398943" height="82.33244792398943" width="70.6846403688514"><g><svg viewBox="0 0 70.6846403688514 82.33244792398943" height="82.33244792398943" width="70.6846403688514"><g><svg viewBox="0 0 70.6846403688514 82.33244792398943" height="82.33244792398943" width="70.6846403688514"><g id="textblocktransform"><svg viewBox="0 0 70.6846403688514 82.33244792398943" height="82.33244792398943" width="70.6846403688514" id="textblock"><g><svg viewBox="0 0 70.6846403688514 82.33244792398943" height="82.33244792398943" width="70.6846403688514"><g transform="matrix(1,0,0,1,0,0)"><svg width="70.6846403688514" viewBox="2.049999952316284 -25.350000381469727 22.150001525878906 25.80000114440918" height="82.33244792398943" data-palette-color="#000000"><path d="M14.3 0.45Q8.65 0.45 5.35-2.8 2.05-6.05 2.05-11.65L2.05-11.65Q2.05-15.6 3.88-18.73 5.7-21.85 8.97-23.6 12.25-25.35 16.4-25.35L16.4-25.35Q17.9-25.35 19.53-25.15 21.15-24.95 22.28-24.7 23.4-24.45 23.7-24.4L23.7-24.4 23.9-24.1Q23.85-23.85 23.65-22.93 23.45-22 23.2-20.5 22.95-19 22.85-17.3L22.85-17.3 20.35-17.15Q20.35-17.3 20.4-17.85 20.45-18.4 20.45-19.1L20.45-19.1Q20.45-22.6 14.85-22.6L14.85-22.6Q10.95-22.6 8.7-20.03 6.45-17.45 6.45-12.95L6.45-12.95Q6.45-7.95 8.83-5 11.2-2.05 15.2-2.05L15.2-2.05Q17.85-2.05 19.43-3.48 21-4.9 21.7-7.95L21.7-7.95 24.2-8.15Q24.05-7.55 23.68-5.45 23.3-3.35 23.15-1.5L23.15-1.5 22.85-1.1Q22.55-1 21.43-0.63 20.3-0.25 18.4 0.1 16.5 0.45 14.3 0.45L14.3 0.45Z" opacity="1" transform="matrix(1,0,0,1,0,0)" fill="#000000" class="wordmark-text-0" data-fill-palette-color="quaternary" id="text-0"/></svg></g></svg></g></svg></g></svg></g></svg></g></svg></g></svg></g><defs><mask/></defs></svg>