<?xml version="1.0" encoding="utf-8"?>
<!-- Generator: Adobe Illustrator 19.2.1, SVG Export Plug-In . SVG Version: 6.00 Build 0)  -->
<svg version="1.1" id="layer" xmlns="http://www.w3.org/2000/svg" xmlns:xlink="http://www.w3.org/1999/xlink" x="0px" y="0px"
	 viewBox="0 0 652 652" style="enable-background:new 0 0 652 652;" xml:space="preserve">
<style type="text/css">
	.st0{fill:#00A180;}
	.st1{fill:#FFFFFF;}
	.st2{fill:#141314;}
</style>
<g>
	<path class="st0" d="M20.3,338.3c23.1-11.9,57-31.2,97.3-59.3v-9.5c-35.4,23.2-71.4,41.8-97.3,54.1V338.3z"/>
	<path class="st0" d="M20.3,310.1c25.8-10.5,61.8-26.7,97.3-47.8v-4.7c-33.4,16.6-68,26.9-97.3,33.4V310.1z"/>
	<path class="st0" d="M117.6,338.4v-47.5c-22.1,18.7-44.1,34.8-62.5,47.5H117.6z"/>
	<path class="st0" d="M42.6,338.4c17.5-10.4,38.7-23.9,59.9-39.8c4.9-3.7,10-7.5,15.1-11.4v-5.9c-31.3,23.5-63.3,43-88.2,57.1H42.6z
		"/>
	<path class="st0" d="M20.3,284c28.5-5,63.3-14,97.3-30.2v-5.3C83.3,264,49,270.5,20.3,272.8V284z"/>
	<path class="st0" d="M20.3,240.6v27.2c2.1-0.1,4.3-0.3,6.5-0.5c23.7-1.8,55.9-6,90.8-21.1v-5.7H20.3z"/>
	<path class="st1" d="M20.3,267.8v5c28.7-2.3,63-8.8,97.3-24.2v-2.3c-34.8,15.1-67.1,19.2-90.8,21.1
		C24.6,267.5,22.4,267.7,20.3,267.8"/>
	<path class="st1" d="M20.3,291c29.3-6.5,63.9-16.8,97.3-33.4v-3.7C83.6,270,48.8,279,20.3,284V291z"/>
	<path class="st1" d="M20.3,323.6c25.9-12.3,61.9-30.9,97.3-54.1v-7.3c-35.5,21.1-71.5,37.3-97.3,47.8V323.6z"/>
	<path class="st1" d="M42.6,338.4h12.4c18.4-12.7,40.4-28.9,62.5-47.5v-3.7c-5.1,3.9-10.1,7.7-15.1,11.4
		C81.4,314.4,60.1,328,42.6,338.4"/>
	<path class="st1" d="M20.3,338.4h9.1c25-14.1,56.9-33.7,88.2-57.1V279C77.4,307.1,43.5,326.4,20.3,338.4L20.3,338.4z"/>
	<path class="st2" d="M150.4,338.3h13.1v-28.6h22v-10.3h-22v-16.1h23.2v-10.3h-36.2V338.3z M195.6,338.3h12.5v-17.7
		c0-6.9,0-19.6,10.2-19.6c2.2,0,4.5,0.4,5.6,1v-12.6c-1.3-0.4-2.6-0.4-3.8-0.4c-7.5,0-12.6,7.6-13.2,12h-0.2v-10.9h-11.1V338.3z
		 M233.2,303.5c4.2-3.2,9.5-5.2,14.8-5.2c7.4,0,10.8,2.6,10.8,10.4H252c-5.2,0-11.4,0.5-16.2,2.8c-4.8,2.3-8.2,6.5-8.2,13.7
		c0,9.1,8.3,14.3,16.8,14.3c5.7,0,12-3,14.8-8.3h0.2c0.1,1.5,0.1,4.7,0.6,7.2h11c-0.3-3.7-0.5-7.1-0.6-10.7c-0.1-3.5-0.2-7.2-0.2-12
		v-6.2c0-14.2-6.1-20.3-20.7-20.3c-5.3,0-11.9,1.4-16.7,3.6L233.2,303.5z M239.5,324.4c0-7.4,8.3-8.3,13.9-8.3h5.4
		c0,3.7-0.6,7.2-2.6,9.9c-2,2.6-4.9,4.3-8.8,4.3C243,330.3,239.5,328.5,239.5,324.4 M324.9,290.2h-12.5v23.5c0,6.2-2,16-11,16
		c-8,0-8.1-7.9-8.1-13.8v-25.7h-12.5v30.4c0,10.8,5,18.9,16.3,18.9c6.5,0,12-3,15.8-7.7h0.2v6.5h11.9V290.2z M337.8,338.3h12.5
		v-23.5c0-6.2,2-16,11-16c8,0,8.1,7.9,8.1,13.8v25.7H382V308c0-10.8-5-18.9-16.3-18.9c-6.5,0-11.9,2.2-15.8,7.7h-0.2v-6.5h-11.8
		V338.3z M394.9,338.3h12.5v-23.5c0-6.2,2-16,11-16c8,0,8.1,7.9,8.1,13.8v25.7H439V308c0-10.8-4.9-18.9-16.3-18.9
		c-6.5,0-12,3-15.1,7.7h-0.2v-28.5h-12.5V338.3z M447,314.6c0,13.8,9.3,24.8,25.1,24.8c16,0,25.2-11,25.2-24.8
		c0-15.9-10.9-25.5-25.2-25.5C457.9,289.1,447,298.7,447,314.6 M460,313.1c0-7.2,3.9-14.3,12.1-14.3c8.2,0,12.1,6.9,12.1,14.3
		c0,8-2.5,16.6-12.1,16.6C462.6,329.7,460,321,460,313.1 M509.8,338.3h12.5v-38.9h10.9v-9.1h-10.9v-6c0-3.7,1.3-7.4,5.5-7.4
		c2.7,0,4.3,1,5.4,1.7l1-10.4c-2.4-0.6-6-1-9.1-1c-9.9,0-15.3,6.7-15.3,16.3v6.7h-9.2v9.1h9.2V338.3z M549.8,309.5
		c0.6-6.4,4.1-11.3,11.1-11.3c7,0,9.8,5.2,10.2,11.3H549.8z M579.5,325.4c-4.7,2.6-9.9,4.9-16,4.9c-7.7,0-13.2-4.4-13.7-12.1H583
		c0-16.8-5-29-22.9-29c-14.9,0-22.3,11.5-22.3,25.4c0,15.8,9.2,24.9,25.1,24.9c6.7,0,11.9-1.3,16.5-3.8V325.4z M592,338.3h12.5
		v-17.7c0-6.9,0-19.6,10.2-19.6c2.2,0,4.5,0.4,5.6,1v-12.6c-1.3-0.4-2.6-0.4-3.8-0.4c-7.5,0-12.6,7.6-13.2,12h-0.2v-10.9H592V338.3z
		"/>
	<rect x="554" y="371.5" class="st2" width="6.3" height="32.6"/>
	<path class="st2" d="M574.7,386.6h2.2c1.7,0,3.1-0.3,4.2-1c1.1-0.7,1.7-2,1.8-3.8c0-1-0.1-1.8-0.5-2.4c-0.3-0.6-0.8-1.2-1.3-1.5
		c-1.1-0.7-2.6-1.1-4.2-1.1h-2.2V386.6z M568.3,371.5h8c3.5,0,6.6,0.6,9.2,2c2.6,1.4,3.9,4,4,7.9c0,3.7-1.2,6.4-3.5,8
		c-2.3,1.6-5.2,2.4-8.7,2.4h-2.7v12.4h-6.3V371.5z"/>
	<path class="st2" d="M604.2,378.1L604.2,378.1l-4.6,13.5h9.2L604.2,378.1z M600.8,371.5h7.1l12.4,32.6h-7l-2.7-7.5h-12.8l-2.8,7.5
		h-6.6L600.8,371.5z"/>
</g>
</svg>
