<?xml version="1.0" encoding="utf-8"?>
<!-- Generator: Adobe Illustrator 26.0.3, SVG Export Plug-In . SVG Version: 6.00 Build 0)  -->
<svg version="1.1" id="Ebene_1" xmlns="http://www.w3.org/2000/svg" xmlns:xlink="http://www.w3.org/1999/xlink" x="0px" y="0px"
	 viewBox="0 0 28.35 3.92" style="enable-background:new 0 0 28.35 3.92;" xml:space="preserve">
<style type="text/css">
	.st0{fill:#E44803;}
</style>
<path class="st0" d="M1.35,3.1L0.92,2.07L0.64,2.42V3.1H0.05V0.29L0.64,0v1.19c0,0.14,0,0.37-0.01,0.48
	c0.06-0.09,0.16-0.23,0.24-0.33l0.36-0.47h0.69L1.35,1.58L1.99,3.1H1.35z"/>
<path class="st0" d="M3.7,3.1V1.89c0-0.4-0.14-0.52-0.38-0.52c-0.24,0-0.38,0.12-0.38,0.51V3.1H2.35V0.87h0.59v0.15
	c0.1-0.11,0.29-0.2,0.52-0.2c0.57,0,0.82,0.39,0.82,1.02V3.1H3.7z"/>
<path class="st0" d="M5.14,0.68c-0.18,0-0.34-0.15-0.34-0.34c0-0.18,0.15-0.34,0.34-0.34c0.18,0,0.34,0.15,0.34,0.34
	C5.48,0.53,5.33,0.68,5.14,0.68z M4.85,3.1V0.87h0.59V3.1H4.85z"/>
<path class="st0" d="M7.09,3.15c-0.2,0-0.37-0.08-0.47-0.17v0.65L6.03,3.92V0.87h0.59v0.14c0.11-0.1,0.26-0.19,0.47-0.19
	c0.48,0,0.87,0.36,0.87,1.19C7.95,2.68,7.64,3.15,7.09,3.15z M6.98,1.37c-0.18,0-0.28,0.08-0.36,0.19V2.4
	c0.09,0.12,0.23,0.19,0.4,0.19c0.23,0,0.35-0.2,0.35-0.57C7.36,1.56,7.21,1.37,6.98,1.37z"/>
<path class="st0" d="M9.48,3.15c-0.2,0-0.37-0.08-0.47-0.17v0.65L8.42,3.92V0.87H9v0.14c0.11-0.1,0.26-0.19,0.47-0.19
	c0.48,0,0.87,0.36,0.87,1.19C10.34,2.68,10.03,3.15,9.48,3.15z M9.37,1.37C9.18,1.37,9.09,1.45,9,1.56V2.4
	c0.09,0.12,0.23,0.19,0.4,0.19c0.23,0,0.35-0.2,0.35-0.57C9.75,1.56,9.6,1.37,9.37,1.37z"/>
<path class="st0" d="M12.62,2.17h-1.33c0.02,0.31,0.25,0.42,0.46,0.42c0.16,0,0.3-0.06,0.38-0.16l0.42,0.35
	c-0.18,0.23-0.5,0.36-0.8,0.36c-0.64,0-1.05-0.45-1.05-1.16c0-0.68,0.43-1.16,0.99-1.16c0.6,0,0.94,0.53,0.94,1.16
	C12.63,2.07,12.62,2.13,12.62,2.17z M11.66,1.33c-0.21,0-0.34,0.17-0.37,0.4h0.77C12.04,1.53,11.92,1.33,11.66,1.33z"/>
<path class="st0" d="M14.4,1.55c-0.09-0.09-0.21-0.14-0.34-0.14c-0.23,0-0.38,0.1-0.38,0.48V3.1h-0.59V0.87h0.59v0.15
	c0.1-0.11,0.25-0.2,0.46-0.2c0.19,0,0.34,0.08,0.41,0.16L14.4,1.55z"/>
<path class="st0" d="M15.6,3.15c-0.35,0-0.7-0.1-0.94-0.26l0.2-0.45c0.24,0.13,0.49,0.2,0.77,0.2c0.23,0,0.3-0.06,0.3-0.17
	c0-0.1-0.08-0.15-0.33-0.23c-0.54-0.16-0.88-0.29-0.88-0.77c0-0.46,0.37-0.66,0.89-0.66c0.28,0,0.59,0.09,0.82,0.22L16.25,1.5
	c-0.22-0.12-0.46-0.18-0.65-0.18c-0.24,0-0.3,0.05-0.3,0.14c0,0.09,0.07,0.13,0.46,0.26c0.4,0.13,0.74,0.28,0.74,0.72
	C16.51,2.96,16.1,3.15,15.6,3.15z"/>
<path class="st0" d="M18.37,3.1V1.89c0-0.4-0.14-0.52-0.38-0.52c-0.24,0-0.38,0.12-0.38,0.51V3.1h-0.59V0.29L17.61,0v1.02
	c0.1-0.11,0.29-0.2,0.52-0.2c0.57,0,0.82,0.39,0.82,1.02V3.1H18.37z"/>
<path class="st0" d="M21.32,2.17h-1.33c0.02,0.31,0.25,0.42,0.46,0.42c0.16,0,0.3-0.06,0.38-0.16l0.42,0.35
	c-0.18,0.23-0.5,0.36-0.8,0.36c-0.64,0-1.05-0.45-1.05-1.16c0-0.68,0.43-1.16,0.99-1.16c0.6,0,0.94,0.53,0.94,1.16
	C21.33,2.07,21.32,2.13,21.32,2.17z M20.36,1.33c-0.21,0-0.34,0.17-0.37,0.4h0.77C20.74,1.53,20.62,1.33,20.36,1.33z"/>
<path class="st0" d="M21.81,3.1V0.29L22.4,0v3.1H21.81z"/>
<path class="st0" d="M24.05,3.15c-0.2,0-0.37-0.08-0.47-0.17V3.1h-0.59V0.29L23.58,0v1.01c0.11-0.1,0.26-0.19,0.47-0.19
	c0.48,0,0.87,0.36,0.87,1.19C24.92,2.68,24.6,3.15,24.05,3.15z M23.94,1.37c-0.18,0-0.28,0.08-0.36,0.19V2.4
	c0.09,0.12,0.23,0.19,0.4,0.19c0.23,0,0.35-0.2,0.35-0.57C24.32,1.56,24.17,1.37,23.94,1.37z"/>
<path class="st0" d="M25.7,0.68c-0.18,0-0.34-0.15-0.34-0.34c0-0.18,0.15-0.34,0.34-0.34c0.18,0,0.34,0.15,0.34,0.34
	C26.03,0.53,25.88,0.68,25.7,0.68z M25.4,3.1V0.87h0.59V3.1H25.4z"/>
<path class="st0" d="M27.43,3.92l-0.21-0.44c0.46-0.06,0.58-0.17,0.58-0.52c-0.11,0.1-0.26,0.19-0.47,0.19
	c-0.48,0-0.87-0.36-0.87-1.19c0-0.67,0.31-1.14,0.87-1.14c0.2,0,0.37,0.08,0.47,0.17V0.87h0.59v1.85
	C28.39,3.46,28.21,3.83,27.43,3.92z M27.8,1.56c-0.09-0.12-0.23-0.19-0.4-0.19c-0.23,0-0.35,0.2-0.35,0.57
	c0,0.46,0.15,0.65,0.38,0.65c0.18,0,0.28-0.08,0.36-0.19V1.56z"/>
</svg>
