<svg xmlns="http://www.w3.org/2000/svg" version="1.1" xmlns:xlink="http://www.w3.org/1999/xlink" xmlns:svgjs="http://svgjs.dev/svgjs" width="1500" height="1500" viewBox="0 0 1500 1500"><rect width="1500" height="1500" fill="#ffffff"></rect><g transform="matrix(0.6666666666666666,0,0,0.6666666666666666,249.39393939393938,438.5856950067477)"><svg viewBox="0 0 396 247" data-background-color="#000000" preserveAspectRatio="xMidYMid meet" height="935" width="1500" xmlns="http://www.w3.org/2000/svg" xmlns:xlink="http://www.w3.org/1999/xlink"><g id="tight-bounds" transform="matrix(1,0,0,1,0.2400000000000091,-0.09999999999999432)"><svg viewBox="0 0 395.52 247.2" height="247.2" width="395.52"><rect width="395.52" height="247.2" fill="#000000" mask="url(#1ac9c493-5819-45e7-b002-2a565ff1bbc9)" data-fill-palette-color="tertiary"></rect><g><svg></svg></g><g><svg viewBox="0 0 395.52 247.2" height="247.2" width="395.52"><g transform="matrix(1,0,0,1,75.54432,97.61282627395774)"><svg viewBox="0 0 244.43135999999998 51.97434745208452" height="51.97434745208452" width="244.43135999999998"><g><svg viewBox="0 0 244.43135999999998 51.97434745208452" height="51.97434745208452" width="244.43135999999998"><g><svg viewBox="0 0 244.43135999999998 51.97434745208452" height="51.97434745208452" width="244.43135999999998"><g><svg viewBox="0 0 244.43135999999998 51.97434745208452" height="51.97434745208452" width="244.43135999999998"><g id="textblocktransform"><svg viewBox="0 0 244.43135999999998 51.97434745208452" height="51.97434745208452" width="244.43135999999998" id="textblock"><g><svg viewBox="0 0 244.43135999999998 33.00015221350078" height="33.00015221350078" width="244.43135999999998"><g transform="matrix(1,0,0,1,0,0)"><svg width="244.43135999999998" viewBox="1.25 -32.9 318.47 43" height="33.00015221350078" data-palette-color="#0b94ff"><path d="M23.35-26.95L13.05-26.95 12.8-30.4 24.45-30.4Q24.6-30.2 24.75-29.75 24.9-29.3 24.9-28.8L24.9-28.8Q24.9-28 24.5-27.48 24.1-26.95 23.35-26.95L23.35-26.95ZM2.8-30.4L13.15-30.4 13.4-26.95 1.7-26.95Q1.55-27.2 1.4-27.65 1.25-28.1 1.25-28.6L1.25-28.6Q1.25-29.45 1.65-29.93 2.05-30.4 2.8-30.4L2.8-30.4ZM11.05-1.6L11.05-28.3 15.1-28.3 15.1-0.1Q14.85 0 14.33 0.13 13.8 0.25 13.25 0.25L13.25 0.25Q12.15 0.25 11.6-0.2 11.05-0.65 11.05-1.6L11.05-1.6ZM46.1-19.2L30.8 0 29.2 0Q28.85-0.3 28.62-0.78 28.4-1.25 28.4-1.75L28.4-1.75Q28.4-2.35 28.67-2.88 28.95-3.4 29.3-3.9L29.3-3.9 44.65-23.1 46.2-23.1Q46.6-22.75 46.82-22.3 47.05-21.85 47.05-21.3L47.05-21.3Q47.05-20.75 46.8-20.25 46.55-19.75 46.1-19.2L46.1-19.2ZM30.2-23.1L45.65-23.1 45.65-19.8 29.15-19.8Q29-20.05 28.85-20.5 28.7-20.95 28.7-21.45L28.7-21.45Q28.7-22.3 29.1-22.7 29.5-23.1 30.2-23.1L30.2-23.1ZM45.85 0L29.5 0 29.5-3.25 46.95-3.25Q47.1-3.05 47.25-2.63 47.4-2.2 47.4-1.65L47.4-1.65Q47.4-0.85 47-0.43 46.6 0 45.85 0L45.85 0ZM53.35-8.45L53.35-8.45 53.35-13 57.35-13 57.35-8.65Q57.35-5.45 59.05-4.05 60.75-2.65 63.75-2.65L63.75-2.65Q65.75-2.65 67.15-3.08 68.55-3.5 69.34-3.95L69.34-3.95 69.34-13 73.34-13 73.34-4.1Q73.34-3.05 73.07-2.43 72.8-1.8 71.75-1.2L71.75-1.2Q70.65-0.55 68.59 0.05 66.55 0.65 63.7 0.65L63.7 0.65Q60.4 0.65 58.07-0.33 55.75-1.3 54.55-3.33 53.35-5.35 53.35-8.45ZM73.34-21.5L73.34-10.4 69.34-10.4 69.34-23Q69.59-23.1 70.12-23.23 70.65-23.35 71.2-23.35L71.2-23.35Q72.3-23.35 72.82-22.93 73.34-22.5 73.34-21.5L73.34-21.5ZM57.35-21.5L57.35-10.4 53.35-10.4 53.35-23Q53.6-23.1 54.12-23.23 54.65-23.35 55.25-23.35L55.25-23.35Q56.3-23.35 56.82-22.93 57.35-22.5 57.35-21.5L57.35-21.5ZM92.09-11.4L92.09-11.4 80.14-11.4Q79.99-11.75 79.89-12.13 79.79-12.5 79.79-13L79.79-13Q79.79-13.85 80.27-14.28 80.74-14.7 81.54-14.7L81.54-14.7 93.49-14.7Q93.59-14.4 93.72-14 93.84-13.6 93.84-13.15L93.84-13.15Q93.84-12.35 93.39-11.88 92.94-11.4 92.09-11.4ZM123.19-27.05L123.19-27.05Q123.19-26.4 122.77-25.88 122.34-25.35 121.79-25.1L121.79-25.1Q120.54-26 118.77-26.8 116.99-27.6 114.19-27.6L114.19-27.6Q111.14-27.6 108.72-26.2 106.29-24.8 104.87-22.03 103.44-19.25 103.44-15.15L103.44-15.15Q103.44-9 106.47-5.9 109.49-2.8 114.34-2.8L114.34-2.8Q116.94-2.8 118.89-3.55 120.84-4.3 122.09-5.25L122.09-5.25Q122.59-5.05 123.04-4.53 123.49-4 123.49-3.3L123.49-3.3Q123.49-2.8 123.22-2.33 122.94-1.85 122.29-1.4L122.29-1.4Q121.14-0.6 119.14 0.03 117.14 0.65 114.04 0.65L114.04 0.65Q109.89 0.65 106.52-1.13 103.14-2.9 101.19-6.4 99.24-9.9 99.24-15.15L99.24-15.15Q99.24-20.4 101.27-23.95 103.29-27.5 106.62-29.28 109.94-31.05 113.89-31.05L113.89-31.05Q116.64-31.05 118.74-30.45 120.84-29.85 122.02-28.93 123.19-28 123.19-27.05ZM149.74-14.65L149.74-9.95 145.74-9.95 145.74-14.55Q145.74-17.55 144.06-19 142.39-20.45 139.74-20.45L139.74-20.45Q137.79-20.45 136.11-19.7 134.44-18.95 133.29-17.9L133.29-17.9 132.54-21.15Q133.74-22 135.71-22.88 137.69-23.75 140.29-23.75L140.29-23.75Q144.44-23.75 147.09-21.5 149.74-19.25 149.74-14.65L149.74-14.65ZM129.79-1.55L129.79-13.2 133.79-13.2 133.79-0.1Q133.54 0 133.04 0.13 132.54 0.25 131.94 0.25L131.94 0.25Q130.89 0.25 130.34-0.18 129.79-0.6 129.79-1.55L129.79-1.55ZM145.74-1.55L145.74-13.15 149.74-13.1 149.74-0.1Q149.49 0 148.96 0.13 148.44 0.25 147.89 0.25L147.89 0.25Q146.79 0.25 146.26-0.18 145.74-0.6 145.74-1.55L145.74-1.55ZM133.79-30.95L133.79-11.25 129.79-11.25 129.79-32.4Q130.04-32.5 130.56-32.63 131.09-32.75 131.69-32.75L131.69-32.75Q132.74-32.75 133.26-32.33 133.79-31.9 133.79-30.95L133.79-30.95ZM156.89-30.4L156.89-30.4Q156.89-31.45 157.64-32.18 158.39-32.9 159.49-32.9L159.49-32.9Q160.64-32.9 161.34-32.18 162.04-31.45 162.04-30.4L162.04-30.4Q162.04-29.35 161.34-28.63 160.64-27.9 159.49-27.9L159.49-27.9Q158.39-27.9 157.64-28.63 156.89-29.35 156.89-30.4ZM157.49-1.55L157.49-13.2 161.49-13.2 161.49-0.1Q161.24 0 160.74 0.13 160.24 0.25 159.64 0.25L159.64 0.25Q158.59 0.25 158.04-0.18 157.49-0.6 157.49-1.55L157.49-1.55ZM161.49-21.5L161.49-11.25 157.49-11.25 157.49-23Q157.74-23.1 158.26-23.23 158.79-23.35 159.39-23.35L159.39-23.35Q160.44-23.35 160.96-22.93 161.49-22.5 161.49-21.5L161.49-21.5ZM189.28-15.25L189.28-15.25 189.28-10.15 185.28-10.15 185.28-15.05Q185.28-17.85 183.71-19.15 182.13-20.45 179.48-20.45L179.48-20.45Q177.48-20.45 175.93-19.95 174.38-19.45 173.28-18.8L173.28-18.8 173.28-10.15 169.28-10.15 169.28-18.6Q169.28-19.65 169.71-20.33 170.13-21 171.18-21.65L171.18-21.65Q172.48-22.4 174.63-23.08 176.78-23.75 179.48-23.75L179.48-23.75Q184.03-23.75 186.66-21.68 189.28-19.6 189.28-15.25ZM169.28-1.55L169.28-12.9 173.28-12.9 173.28-0.1Q173.03 0 172.53 0.13 172.03 0.25 171.43 0.25L171.43 0.25Q170.38 0.25 169.83-0.18 169.28-0.6 169.28-1.55L169.28-1.55ZM185.28-1.55L185.28-12.9 189.28-12.9 189.28-0.1Q189.03 0 188.51 0.13 187.98 0.25 187.43 0.25L187.43 0.25Q186.33 0.25 185.81-0.18 185.28-0.6 185.28-1.55L185.28-1.55ZM206.38-0.7L206.38-0.7Q203.48-0.7 201.03-1.83 198.58-2.95 197.08-5.5 195.58-8.05 195.58-12.25L195.58-12.25Q195.58-16.05 197.06-18.6 198.53-21.15 201.13-22.45 203.73-23.75 207.08-23.75L207.08-23.75Q209.38-23.75 211.31-23.18 213.23-22.6 214.53-21.75L214.53-21.75Q215.28-21.25 215.76-20.63 216.23-20 216.23-19.1L216.23-19.1 216.23-3.65 212.23-3.65 212.23-19.05Q211.38-19.6 210.11-20.03 208.83-20.45 207.08-20.45L207.08-20.45Q203.73-20.45 201.68-18.4 199.63-16.35 199.63-12.3L199.63-12.3Q199.63-7.8 201.71-5.9 203.78-4 206.83-4L206.83-4Q209.03-4 210.38-4.75 211.73-5.5 212.53-6.4L212.53-6.4 212.73-2.85Q211.98-2.05 210.36-1.38 208.73-0.7 206.38-0.7ZM212.23 0.75L212.23 0.75 212.23-4.5 216.23-4.5 216.23 1Q216.23 4.3 214.81 6.3 213.38 8.3 210.91 9.2 208.43 10.1 205.33 10.1L205.33 10.1Q202.83 10.1 201.03 9.55 199.23 9 198.58 8.65L198.58 8.65Q197.08 7.8 197.08 6.5L197.08 6.5Q197.08 5.8 197.41 5.33 197.73 4.85 198.23 4.6L198.23 4.6Q199.28 5.4 201.21 6.08 203.13 6.75 205.33 6.75L205.33 6.75Q208.68 6.75 210.46 5.3 212.23 3.85 212.23 0.75ZM247.83-22.85L247.83-22.85Q248.23-23.05 248.83-23.2 249.43-23.35 250.08-23.35L250.08-23.35Q251.08-23.35 251.75-23.03 252.43-22.7 252.63-22.05L252.63-22.05Q253.88-18.45 254.9-15.38 255.93-12.3 256.85-9.43 257.78-6.55 258.73-3.5L258.73-3.5 258.93-3.5Q259.88-8 260.78-12.28 261.68-16.55 262.53-20.95 263.38-25.35 264.08-30.35L264.08-30.35Q264.78-30.7 265.78-30.7L265.78-30.7Q266.73-30.7 267.28-30.28 267.83-29.85 267.83-29L267.83-29Q267.83-28.05 267.55-26.13 267.28-24.2 266.8-21.63 266.33-19.05 265.7-16.18 265.08-13.3 264.38-10.43 263.68-7.55 262.98-5 262.28-2.45 261.63-0.55L261.63-0.55Q261.18-0.3 260.48-0.08 259.78 0.15 258.88 0.15L258.88 0.15Q257.78 0.15 257.03-0.2 256.28-0.55 256.03-1.15L256.03-1.15Q255.33-2.9 254.33-5.78 253.33-8.65 252.25-12.08 251.18-15.5 250.18-18.85L250.18-18.85Q249.23-15.55 248.13-12 247.03-8.45 246-5.4 244.98-2.35 244.18-0.5L244.18-0.5Q243.83-0.3 243.1-0.08 242.38 0.15 241.48 0.15L241.48 0.15Q240.38 0.15 239.65-0.23 238.93-0.6 238.68-1.15L238.68-1.15Q238.18-2.4 237.45-4.9 236.73-7.4 235.93-10.63 235.13-13.85 234.35-17.32 233.58-20.8 232.9-24.03 232.23-27.25 231.83-29.75L231.83-29.75Q232.18-30.1 232.78-30.4 233.38-30.7 234.08-30.7L234.08-30.7Q234.98-30.7 235.48-30.28 235.98-29.85 236.18-28.85L236.18-28.85Q236.83-25.7 237.43-22.75 238.03-19.8 238.65-16.8 239.28-13.8 239.98-10.53 240.68-7.25 241.53-3.5L241.53-3.5 241.73-3.5Q242.43-5.75 243.08-7.8 243.73-9.85 244.43-12.03 245.13-14.2 245.95-16.8 246.78-19.4 247.83-22.85ZM292.02-11.35L275.22-9 275.02-12.15 290.12-14.2Q289.92-16.95 288.22-18.73 286.52-20.5 283.52-20.5L283.52-20.5Q280.42-20.5 278.4-18.28 276.37-16.05 276.37-11.9L276.37-11.9 276.37-10.8Q276.72-6.8 279-4.73 281.27-2.65 285.22-2.65L285.22-2.65Q287.32-2.65 289.02-3.35 290.72-4.05 291.72-4.85L291.72-4.85Q292.27-4.5 292.6-4.03 292.92-3.55 292.92-2.95L292.92-2.95Q292.92-2 291.85-1.18 290.77-0.35 289 0.15 287.22 0.65 285.02 0.65L285.02 0.65Q281.17 0.65 278.35-0.75 275.52-2.15 274-4.93 272.47-7.7 272.47-11.7L272.47-11.7Q272.47-14.55 273.3-16.78 274.12-19 275.6-20.55 277.07-22.1 279.12-22.93 281.17-23.75 283.57-23.75L283.57-23.75Q286.62-23.75 288.95-22.45 291.27-21.15 292.6-18.82 293.92-16.5 293.92-13.5L293.92-13.5Q293.92-12.4 293.42-11.93 292.92-11.45 292.02-11.35L292.02-11.35ZM319.72-15.25L319.72-15.25 319.72-10.15 315.72-10.15 315.72-15.05Q315.72-17.85 314.15-19.15 312.57-20.45 309.92-20.45L309.92-20.45Q307.92-20.45 306.37-19.95 304.82-19.45 303.72-18.8L303.72-18.8 303.72-10.15 299.72-10.15 299.72-18.6Q299.72-19.65 300.15-20.33 300.57-21 301.62-21.65L301.62-21.65Q302.92-22.4 305.07-23.08 307.22-23.75 309.92-23.75L309.92-23.75Q314.47-23.75 317.1-21.68 319.72-19.6 319.72-15.25ZM299.72-1.55L299.72-12.9 303.72-12.9 303.72-0.1Q303.47 0 302.97 0.13 302.47 0.25 301.87 0.25L301.87 0.25Q300.82 0.25 300.27-0.18 299.72-0.6 299.72-1.55L299.72-1.55ZM315.72-1.55L315.72-12.9 319.72-12.9 319.72-0.1Q319.47 0 318.95 0.13 318.42 0.25 317.87 0.25L317.87 0.25Q316.77 0.25 316.25-0.18 315.72-0.6 315.72-1.55L315.72-1.55Z" opacity="1" transform="matrix(1,0,0,1,0,0)" fill="#000000" class="wordmark-text-0" data-fill-palette-color="primary" id="text-0"></path></svg></g></svg></g><g transform="matrix(1,0,0,1,0,40.79069614745519)"><svg viewBox="0 0 244.43135999999998 11.183651304629327" height="11.183651304629327" width="244.43135999999998"><g transform="matrix(1,0,0,1,0,0)"><svg width="244.43135999999998" viewBox="1.5 -32.9 926.7 42.4" height="11.183651304629327" data-palette-color="url(#7fedb7da-ba38-4ec2-8c90-e20475a454f2)"></svg></g></svg></g></svg></g></svg></g></svg></g></svg></g></svg></g><path d="M194.576 91.613L194.576 28.02 3.417 28.02 3.417 219.18 194.576 219.18 194.576 155.587 191.6 155.587 191.6 216.204 6.393 216.204 6.393 30.996 191.6 30.996 191.6 91.613Z" fill="#000000" stroke="transparent" data-fill-palette-color="tertiary"></path></svg></g><defs></defs><mask id="aeeac4e1-cc81-46b0-8784-828ede32b8e5"><g id="SvgjsG6242"><svg viewBox="0 0 395.52 247.2" height="247.2" width="395.52"><g><svg></svg></g><g><svg viewBox="0 0 395.52 247.2" height="247.2" width="395.52"><g transform="matrix(1,0,0,1,75.54432,97.61282627395774)"><svg viewBox="0 0 244.43135999999998 51.97434745208452" height="51.97434745208452" width="244.43135999999998"><g><svg viewBox="0 0 244.43135999999998 51.97434745208452" height="51.97434745208452" width="244.43135999999998"><g><svg viewBox="0 0 244.43135999999998 51.97434745208452" height="51.97434745208452" width="244.43135999999998"><g><svg viewBox="0 0 244.43135999999998 51.97434745208452" height="51.97434745208452" width="244.43135999999998"><g id="SvgjsG6241"><svg viewBox="0 0 244.43135999999998 51.97434745208452" height="51.97434745208452" width="244.43135999999998" id="SvgjsSvg6240"><g><svg viewBox="0 0 244.43135999999998 33.00015221350078" height="33.00015221350078" width="244.43135999999998"><g transform="matrix(1,0,0,1,0,0)"><svg width="244.43135999999998" viewBox="1.25 -32.9 318.47 43" height="33.00015221350078" data-palette-color="#0b94ff"><path d="M23.35-26.95L13.05-26.95 12.8-30.4 24.45-30.4Q24.6-30.2 24.75-29.75 24.9-29.3 24.9-28.8L24.9-28.8Q24.9-28 24.5-27.48 24.1-26.95 23.35-26.95L23.35-26.95ZM2.8-30.4L13.15-30.4 13.4-26.95 1.7-26.95Q1.55-27.2 1.4-27.65 1.25-28.1 1.25-28.6L1.25-28.6Q1.25-29.45 1.65-29.93 2.05-30.4 2.8-30.4L2.8-30.4ZM11.05-1.6L11.05-28.3 15.1-28.3 15.1-0.1Q14.85 0 14.33 0.13 13.8 0.25 13.25 0.25L13.25 0.25Q12.15 0.25 11.6-0.2 11.05-0.65 11.05-1.6L11.05-1.6ZM46.1-19.2L30.8 0 29.2 0Q28.85-0.3 28.62-0.78 28.4-1.25 28.4-1.75L28.4-1.75Q28.4-2.35 28.67-2.88 28.95-3.4 29.3-3.9L29.3-3.9 44.65-23.1 46.2-23.1Q46.6-22.75 46.82-22.3 47.05-21.85 47.05-21.3L47.05-21.3Q47.05-20.75 46.8-20.25 46.55-19.75 46.1-19.2L46.1-19.2ZM30.2-23.1L45.65-23.1 45.65-19.8 29.15-19.8Q29-20.05 28.85-20.5 28.7-20.95 28.7-21.45L28.7-21.45Q28.7-22.3 29.1-22.7 29.5-23.1 30.2-23.1L30.2-23.1ZM45.85 0L29.5 0 29.5-3.25 46.95-3.25Q47.1-3.05 47.25-2.63 47.4-2.2 47.4-1.65L47.4-1.65Q47.4-0.85 47-0.43 46.6 0 45.85 0L45.85 0ZM53.35-8.45L53.35-8.45 53.35-13 57.35-13 57.35-8.65Q57.35-5.45 59.05-4.05 60.75-2.65 63.75-2.65L63.75-2.65Q65.75-2.65 67.15-3.08 68.55-3.5 69.34-3.95L69.34-3.95 69.34-13 73.34-13 73.34-4.1Q73.34-3.05 73.07-2.43 72.8-1.8 71.75-1.2L71.75-1.2Q70.65-0.55 68.59 0.05 66.55 0.65 63.7 0.65L63.7 0.65Q60.4 0.65 58.07-0.33 55.75-1.3 54.55-3.33 53.35-5.35 53.35-8.45ZM73.34-21.5L73.34-10.4 69.34-10.4 69.34-23Q69.59-23.1 70.12-23.23 70.65-23.35 71.2-23.35L71.2-23.35Q72.3-23.35 72.82-22.93 73.34-22.5 73.34-21.5L73.34-21.5ZM57.35-21.5L57.35-10.4 53.35-10.4 53.35-23Q53.6-23.1 54.12-23.23 54.65-23.35 55.25-23.35L55.25-23.35Q56.3-23.35 56.82-22.93 57.35-22.5 57.35-21.5L57.35-21.5ZM92.09-11.4L92.09-11.4 80.14-11.4Q79.99-11.75 79.89-12.13 79.79-12.5 79.79-13L79.79-13Q79.79-13.85 80.27-14.28 80.74-14.7 81.54-14.7L81.54-14.7 93.49-14.7Q93.59-14.4 93.72-14 93.84-13.6 93.84-13.15L93.84-13.15Q93.84-12.35 93.39-11.88 92.94-11.4 92.09-11.4ZM123.19-27.05L123.19-27.05Q123.19-26.4 122.77-25.88 122.34-25.35 121.79-25.1L121.79-25.1Q120.54-26 118.77-26.8 116.99-27.6 114.19-27.6L114.19-27.6Q111.14-27.6 108.72-26.2 106.29-24.8 104.87-22.03 103.44-19.25 103.44-15.15L103.44-15.15Q103.44-9 106.47-5.9 109.49-2.8 114.34-2.8L114.34-2.8Q116.94-2.8 118.89-3.55 120.84-4.3 122.09-5.25L122.09-5.25Q122.59-5.05 123.04-4.53 123.49-4 123.49-3.3L123.49-3.3Q123.49-2.8 123.22-2.33 122.94-1.85 122.29-1.4L122.29-1.4Q121.14-0.6 119.14 0.03 117.14 0.65 114.04 0.65L114.04 0.65Q109.89 0.65 106.52-1.13 103.14-2.9 101.19-6.4 99.24-9.9 99.24-15.15L99.24-15.15Q99.24-20.4 101.27-23.95 103.29-27.5 106.62-29.28 109.94-31.05 113.89-31.05L113.89-31.05Q116.64-31.05 118.74-30.45 120.84-29.85 122.02-28.93 123.19-28 123.19-27.05ZM149.74-14.65L149.74-9.95 145.74-9.95 145.74-14.55Q145.74-17.55 144.06-19 142.39-20.45 139.74-20.45L139.74-20.45Q137.79-20.45 136.11-19.7 134.44-18.95 133.29-17.9L133.29-17.9 132.54-21.15Q133.74-22 135.71-22.88 137.69-23.75 140.29-23.75L140.29-23.75Q144.44-23.75 147.09-21.5 149.74-19.25 149.74-14.65L149.74-14.65ZM129.79-1.55L129.79-13.2 133.79-13.2 133.79-0.1Q133.54 0 133.04 0.13 132.54 0.25 131.94 0.25L131.94 0.25Q130.89 0.25 130.34-0.18 129.79-0.6 129.79-1.55L129.79-1.55ZM145.74-1.55L145.74-13.15 149.74-13.1 149.74-0.1Q149.49 0 148.96 0.13 148.44 0.25 147.89 0.25L147.89 0.25Q146.79 0.25 146.26-0.18 145.74-0.6 145.74-1.55L145.74-1.55ZM133.79-30.95L133.79-11.25 129.79-11.25 129.79-32.4Q130.04-32.5 130.56-32.63 131.09-32.75 131.69-32.75L131.69-32.75Q132.74-32.75 133.26-32.33 133.79-31.9 133.79-30.95L133.79-30.95ZM156.89-30.4L156.89-30.4Q156.89-31.45 157.64-32.18 158.39-32.9 159.49-32.9L159.49-32.9Q160.64-32.9 161.34-32.18 162.04-31.45 162.04-30.4L162.04-30.4Q162.04-29.35 161.34-28.63 160.64-27.9 159.49-27.9L159.49-27.9Q158.39-27.9 157.64-28.63 156.89-29.35 156.89-30.4ZM157.49-1.55L157.49-13.2 161.49-13.2 161.49-0.1Q161.24 0 160.74 0.13 160.24 0.25 159.64 0.25L159.64 0.25Q158.59 0.25 158.04-0.18 157.49-0.6 157.49-1.55L157.49-1.55ZM161.49-21.5L161.49-11.25 157.49-11.25 157.49-23Q157.74-23.1 158.26-23.23 158.79-23.35 159.39-23.35L159.39-23.35Q160.44-23.35 160.96-22.93 161.49-22.5 161.49-21.5L161.49-21.5ZM189.28-15.25L189.28-15.25 189.28-10.15 185.28-10.15 185.28-15.05Q185.28-17.85 183.71-19.15 182.13-20.45 179.48-20.45L179.48-20.45Q177.48-20.45 175.93-19.95 174.38-19.45 173.28-18.8L173.28-18.8 173.28-10.15 169.28-10.15 169.28-18.6Q169.28-19.65 169.71-20.33 170.13-21 171.18-21.65L171.18-21.65Q172.48-22.4 174.63-23.08 176.78-23.75 179.48-23.75L179.48-23.75Q184.03-23.75 186.66-21.68 189.28-19.6 189.28-15.25ZM169.28-1.55L169.28-12.9 173.28-12.9 173.28-0.1Q173.03 0 172.53 0.13 172.03 0.25 171.43 0.25L171.43 0.25Q170.38 0.25 169.83-0.18 169.28-0.6 169.28-1.55L169.28-1.55ZM185.28-1.55L185.28-12.9 189.28-12.9 189.28-0.1Q189.03 0 188.51 0.13 187.98 0.25 187.43 0.25L187.43 0.25Q186.33 0.25 185.81-0.18 185.28-0.6 185.28-1.55L185.28-1.55ZM206.38-0.7L206.38-0.7Q203.48-0.7 201.03-1.83 198.58-2.95 197.08-5.5 195.58-8.05 195.58-12.25L195.58-12.25Q195.58-16.05 197.06-18.6 198.53-21.15 201.13-22.45 203.73-23.75 207.08-23.75L207.08-23.75Q209.38-23.75 211.31-23.18 213.23-22.6 214.53-21.75L214.53-21.75Q215.28-21.25 215.76-20.63 216.23-20 216.23-19.1L216.23-19.1 216.23-3.65 212.23-3.65 212.23-19.05Q211.38-19.6 210.11-20.03 208.83-20.45 207.08-20.45L207.08-20.45Q203.73-20.45 201.68-18.4 199.63-16.35 199.63-12.3L199.63-12.3Q199.63-7.8 201.71-5.9 203.78-4 206.83-4L206.83-4Q209.03-4 210.38-4.75 211.73-5.5 212.53-6.4L212.53-6.4 212.73-2.85Q211.98-2.05 210.36-1.38 208.73-0.7 206.38-0.7ZM212.23 0.75L212.23 0.75 212.23-4.5 216.23-4.5 216.23 1Q216.23 4.3 214.81 6.3 213.38 8.3 210.91 9.2 208.43 10.1 205.33 10.1L205.33 10.1Q202.83 10.1 201.03 9.55 199.23 9 198.58 8.65L198.58 8.65Q197.08 7.8 197.08 6.5L197.08 6.5Q197.08 5.8 197.41 5.33 197.73 4.85 198.23 4.6L198.23 4.6Q199.28 5.4 201.21 6.08 203.13 6.75 205.33 6.75L205.33 6.75Q208.68 6.75 210.46 5.3 212.23 3.85 212.23 0.75ZM247.83-22.85L247.83-22.85Q248.23-23.05 248.83-23.2 249.43-23.35 250.08-23.35L250.08-23.35Q251.08-23.35 251.75-23.03 252.43-22.7 252.63-22.05L252.63-22.05Q253.88-18.45 254.9-15.38 255.93-12.3 256.85-9.43 257.78-6.55 258.73-3.5L258.73-3.5 258.93-3.5Q259.88-8 260.78-12.28 261.68-16.55 262.53-20.95 263.38-25.35 264.08-30.35L264.08-30.35Q264.78-30.7 265.78-30.7L265.78-30.7Q266.73-30.7 267.28-30.28 267.83-29.85 267.83-29L267.83-29Q267.83-28.05 267.55-26.13 267.28-24.2 266.8-21.63 266.33-19.05 265.7-16.18 265.08-13.3 264.38-10.43 263.68-7.55 262.98-5 262.28-2.45 261.63-0.55L261.63-0.55Q261.18-0.3 260.48-0.08 259.78 0.15 258.88 0.15L258.88 0.15Q257.78 0.15 257.03-0.2 256.28-0.55 256.03-1.15L256.03-1.15Q255.33-2.9 254.33-5.78 253.33-8.65 252.25-12.08 251.18-15.5 250.18-18.85L250.18-18.85Q249.23-15.55 248.13-12 247.03-8.45 246-5.4 244.98-2.35 244.18-0.5L244.18-0.5Q243.83-0.3 243.1-0.08 242.38 0.15 241.48 0.15L241.48 0.15Q240.38 0.15 239.65-0.23 238.93-0.6 238.68-1.15L238.68-1.15Q238.18-2.4 237.45-4.9 236.73-7.4 235.93-10.63 235.13-13.85 234.35-17.32 233.58-20.8 232.9-24.03 232.23-27.25 231.83-29.75L231.83-29.75Q232.18-30.1 232.78-30.4 233.38-30.7 234.08-30.7L234.08-30.7Q234.98-30.7 235.48-30.28 235.98-29.85 236.18-28.85L236.18-28.85Q236.83-25.7 237.43-22.75 238.03-19.8 238.65-16.8 239.28-13.8 239.98-10.53 240.68-7.25 241.53-3.5L241.53-3.5 241.73-3.5Q242.43-5.75 243.08-7.8 243.73-9.85 244.43-12.03 245.13-14.2 245.95-16.8 246.78-19.4 247.83-22.85ZM292.02-11.35L275.22-9 275.02-12.15 290.12-14.2Q289.92-16.95 288.22-18.73 286.52-20.5 283.52-20.5L283.52-20.5Q280.42-20.5 278.4-18.28 276.37-16.05 276.37-11.9L276.37-11.9 276.37-10.8Q276.72-6.8 279-4.73 281.27-2.65 285.22-2.65L285.22-2.65Q287.32-2.65 289.02-3.35 290.72-4.05 291.72-4.85L291.72-4.85Q292.27-4.5 292.6-4.03 292.92-3.55 292.92-2.95L292.92-2.95Q292.92-2 291.85-1.18 290.77-0.35 289 0.15 287.22 0.65 285.02 0.65L285.02 0.65Q281.17 0.65 278.35-0.75 275.52-2.15 274-4.93 272.47-7.7 272.47-11.7L272.47-11.7Q272.47-14.55 273.3-16.78 274.12-19 275.6-20.55 277.07-22.1 279.12-22.93 281.17-23.75 283.57-23.75L283.57-23.75Q286.62-23.75 288.95-22.45 291.27-21.15 292.6-18.82 293.92-16.5 293.92-13.5L293.92-13.5Q293.92-12.4 293.42-11.93 292.92-11.45 292.02-11.35L292.02-11.35ZM319.72-15.25L319.72-15.25 319.72-10.15 315.72-10.15 315.72-15.05Q315.72-17.85 314.15-19.15 312.57-20.45 309.92-20.45L309.92-20.45Q307.92-20.45 306.37-19.95 304.82-19.45 303.72-18.8L303.72-18.8 303.72-10.15 299.72-10.15 299.72-18.6Q299.72-19.65 300.15-20.33 300.57-21 301.62-21.65L301.62-21.65Q302.92-22.4 305.07-23.08 307.22-23.75 309.92-23.75L309.92-23.75Q314.47-23.75 317.1-21.68 319.72-19.6 319.72-15.25ZM299.72-1.55L299.72-12.9 303.72-12.9 303.72-0.1Q303.47 0 302.97 0.13 302.47 0.25 301.87 0.25L301.87 0.25Q300.82 0.25 300.27-0.18 299.72-0.6 299.72-1.55L299.72-1.55ZM315.72-1.55L315.72-12.9 319.72-12.9 319.72-0.1Q319.47 0 318.95 0.13 318.42 0.25 317.87 0.25L317.87 0.25Q316.77 0.25 316.25-0.18 315.72-0.6 315.72-1.55L315.72-1.55Z" opacity="1" transform="matrix(1,0,0,1,0,0)" fill="black" class="wordmark-text-0" id="SvgjsPath6239"></path></svg></g></svg></g><g transform="matrix(1,0,0,1,0,40.79069614745519)"><svg viewBox="0 0 244.43135999999998 11.183651304629327" height="11.183651304629327" width="244.43135999999998"><g transform="matrix(1,0,0,1,0,0)"><svg width="244.43135999999998" viewBox="1.5 -32.9 926.7 42.4" height="11.183651304629327" data-palette-color="url(#7fedb7da-ba38-4ec2-8c90-e20475a454f2)"><path d="M14.9-27.25L14.9-27.25 14.7-27.25Q13.95-25.15 12.93-22.25 11.9-19.35 10.83-16.28 9.75-13.2 8.8-10.55L8.8-10.55 8.55-9.8Q8.25-8.9 7.8-7.55 7.35-6.2 6.85-4.73 6.35-3.25 5.9-1.98 5.45-0.7 5.2 0.1L5.2 0.1Q4.85 0.25 4.48 0.33 4.1 0.4 3.55 0.4L3.55 0.4Q2.75 0.4 2.13-0.03 1.5-0.45 1.5-1.4L1.5-1.4Q1.5-1.85 1.65-2.33 1.8-2.8 2-3.35L2-3.35Q2.6-5.05 3.48-7.5 4.35-9.95 5.4-12.85 6.45-15.75 7.6-18.8 8.75-21.85 9.85-24.75 10.95-27.65 11.9-30.05L11.9-30.05Q12.3-30.25 13.1-30.45 13.9-30.65 14.75-30.65L14.75-30.65Q15.75-30.65 16.68-30.35 17.6-30.05 17.85-29.35L17.85-29.35Q19.05-26.45 20.43-22.78 21.8-19.1 23.2-15.13 24.6-11.15 25.88-7.4 27.15-3.65 28.15-0.6L28.15-0.6Q27.8-0.15 27.23 0.13 26.65 0.4 25.95 0.4L25.95 0.4Q25 0.4 24.5-0.03 24-0.45 23.65-1.45L23.65-1.45 20.9-9.6 20.5-11Q19.5-14.05 18.43-17.15 17.35-20.25 16.43-22.9 15.5-25.55 14.9-27.25ZM22.65-8.1L6.6-8.1 7.9-11.45 21.85-11.45 22.65-8.1ZM33.35-8.45L33.35-8.45 33.35-13 37.35-13 37.35-8.65Q37.35-5.45 39.05-4.05 40.75-2.65 43.75-2.65L43.75-2.65Q45.75-2.65 47.15-3.08 48.55-3.5 49.35-3.95L49.35-3.95 49.35-13 53.35-13 53.35-4.1Q53.35-3.05 53.08-2.43 52.8-1.8 51.75-1.2L51.75-1.2Q50.65-0.55 48.6 0.05 46.55 0.65 43.7 0.65L43.7 0.65Q40.4 0.65 38.08-0.33 35.75-1.3 34.55-3.33 33.35-5.35 33.35-8.45ZM53.35-21.5L53.35-10.4 49.35-10.4 49.35-23Q49.6-23.1 50.13-23.23 50.65-23.35 51.2-23.35L51.2-23.35Q52.3-23.35 52.83-22.93 53.35-22.5 53.35-21.5L53.35-21.5ZM37.35-21.5L37.35-10.4 33.35-10.4 33.35-23Q33.6-23.1 34.13-23.23 34.65-23.35 35.25-23.35L35.25-23.35Q36.3-23.35 36.83-22.93 37.35-22.5 37.35-21.5L37.35-21.5ZM60.9-6.05L60.9-13.2 64.9-13.2 64.9-6.3Q64.9-4.3 66.05-3.48 67.2-2.65 69.2-2.65L69.2-2.65Q70.05-2.65 71.1-2.95 72.15-3.25 72.85-3.65L72.85-3.65Q73.15-3.35 73.4-2.9 73.65-2.45 73.65-1.85L73.65-1.85Q73.65-0.75 72.35-0.05 71.05 0.65 68.75 0.65L68.75 0.65Q65.25 0.65 63.08-0.9 60.9-2.45 60.9-6.05L60.9-6.05ZM72.05-19.3L62.95-19.3 62.95-22.6 73.1-22.6Q73.25-22.4 73.4-21.95 73.55-21.5 73.55-21L73.55-21Q73.55-20.2 73.15-19.75 72.75-19.3 72.05-19.3L72.05-19.3ZM64.9-28.35L64.9-11.7 60.9-11.7 60.9-29.8Q61.15-29.9 61.68-30.03 62.2-30.15 62.8-30.15L62.8-30.15Q63.85-30.15 64.38-29.73 64.9-29.3 64.9-28.35L64.9-28.35ZM100.9-11.55L100.9-11.55Q100.9-7.85 99.5-5.1 98.1-2.35 95.55-0.85 93 0.65 89.55 0.65L89.55 0.65Q86.1 0.65 83.53-0.85 80.95-2.35 79.55-5.1 78.15-7.85 78.15-11.55L78.15-11.55Q78.15-15.3 79.58-18.03 81-20.75 83.58-22.25 86.15-23.75 89.55-23.75L89.55-23.75Q92.95-23.75 95.5-22.25 98.05-20.75 99.48-18.03 100.9-15.3 100.9-11.55ZM89.55-20.45L89.55-20.45Q86.2-20.45 84.23-18.07 82.25-15.7 82.25-11.55L82.25-11.55Q82.25-7.35 84.18-5 86.1-2.65 89.55-2.65L89.55-2.65Q92.95-2.65 94.88-5.03 96.8-7.4 96.8-11.55L96.8-11.55Q96.8-15.7 94.88-18.07 92.95-20.45 89.55-20.45ZM125.75-16L125.75-16 125.75-10.25 121.75-10.25 121.75-15.7Q121.75-18.15 120.33-19.3 118.9-20.45 116.55-20.45L116.55-20.45Q115-20.45 113.55-19.95 112.1-19.45 111.1-18.8L111.1-18.8 111.1-10.25 107.1-10.25 107.1-18.6Q107.1-19.6 107.53-20.3 107.95-21 109-21.65L109-21.65Q110.35-22.5 112.43-23.13 114.5-23.75 116.6-23.75L116.6-23.75Q119.15-23.75 121.1-22.98 123.05-22.2 124-20.85L124-20.85Q124.3-20.55 124.5-20.3 124.7-20.05 124.9-19.65L124.9-19.65Q125.25-19.05 125.5-18.1 125.75-17.15 125.75-16ZM140.4-15.9L140.4-15.9 140.4-10.25 136.4-10.25 136.4-15.7Q136.4-18.15 135-19.3 133.6-20.45 131.25-20.45L131.25-20.45Q129.5-20.45 127.88-19.73 126.25-19 124.95-17.65L124.95-17.65 123.35-20.55Q124.65-21.85 126.75-22.8 128.85-23.75 131.55-23.75L131.55-23.75Q134.25-23.75 136.23-22.9 138.2-22.05 139.3-20.3 140.4-18.55 140.4-15.9ZM107.1-1.55L107.1-12.9 111.1-12.9 111.1-0.1Q110.85 0 110.35 0.13 109.85 0.25 109.25 0.25L109.25 0.25Q108.2 0.25 107.65-0.18 107.1-0.6 107.1-1.55L107.1-1.55ZM121.75-1.55L121.75-12.9 125.75-12.9 125.75-0.1Q125.5 0 124.98 0.13 124.45 0.25 123.9 0.25L123.9 0.25Q122.8 0.25 122.28-0.18 121.75-0.6 121.75-1.55L121.75-1.55ZM136.4-1.55L136.4-12.9 140.4-12.9 140.4-0.1Q140.15 0 139.63 0.13 139.1 0.25 138.55 0.25L138.55 0.25Q137.45 0.25 136.93-0.18 136.4-0.6 136.4-1.55L136.4-1.55ZM156.15 0.7L156.15 0.7Q151.45 0.7 148.88-1.15 146.3-3 146.3-6.5L146.3-6.5Q146.3-9.75 148.48-11.48 150.65-13.2 154.5-13.55L154.5-13.55 161.6-14.25 161.6-15.65Q161.6-18.15 160.1-19.3 158.6-20.45 156.05-20.45L156.05-20.45Q154-20.45 152.13-19.85 150.25-19.25 148.8-18.5L148.8-18.5Q148.4-18.85 148.08-19.33 147.75-19.8 147.75-20.3L147.75-20.3Q147.75-21.6 149.2-22.3L149.2-22.3Q150.55-23 152.33-23.38 154.1-23.75 156.1-23.75L156.1-23.75Q160.45-23.75 163-21.8 165.55-19.85 165.55-15.65L165.55-15.65 165.55-3.8Q165.55-2.7 165.13-2.13 164.7-1.55 163.85-1.05L163.85-1.05Q162.65-0.4 160.65 0.15 158.65 0.7 156.15 0.7ZM156.15-2.6L156.15-2.6Q158.25-2.6 159.63-3.03 161-3.45 161.6-3.85L161.6-3.85 161.6-11.1 155.4-10.45Q152.8-10.25 151.55-9.3 150.3-8.35 150.3-6.55L150.3-6.55Q150.3-4.7 151.78-3.65 153.25-2.6 156.15-2.6ZM172.9-6.05L172.9-13.2 176.9-13.2 176.9-6.3Q176.9-4.3 178.05-3.48 179.2-2.65 181.2-2.65L181.2-2.65Q182.05-2.65 183.1-2.95 184.15-3.25 184.85-3.65L184.85-3.65Q185.15-3.35 185.4-2.9 185.65-2.45 185.65-1.85L185.65-1.85Q185.65-0.75 184.35-0.05 183.05 0.65 180.75 0.65L180.75 0.65Q177.25 0.65 175.08-0.9 172.9-2.45 172.9-6.05L172.9-6.05ZM184.05-19.3L174.95-19.3 174.95-22.6 185.1-22.6Q185.25-22.4 185.4-21.95 185.55-21.5 185.55-21L185.55-21Q185.55-20.2 185.15-19.75 184.75-19.3 184.05-19.3L184.05-19.3ZM176.9-28.35L176.9-11.7 172.9-11.7 172.9-29.8Q173.15-29.9 173.68-30.03 174.2-30.15 174.8-30.15L174.8-30.15Q175.85-30.15 176.38-29.73 176.9-29.3 176.9-28.35L176.9-28.35ZM209.7-11.35L192.9-9 192.7-12.15 207.8-14.2Q207.6-16.95 205.9-18.73 204.2-20.5 201.2-20.5L201.2-20.5Q198.1-20.5 196.08-18.28 194.05-16.05 194.05-11.9L194.05-11.9 194.05-10.8Q194.4-6.8 196.68-4.73 198.95-2.65 202.9-2.65L202.9-2.65Q205-2.65 206.7-3.35 208.4-4.05 209.4-4.85L209.4-4.85Q209.95-4.5 210.28-4.03 210.6-3.55 210.6-2.95L210.6-2.95Q210.6-2 209.53-1.18 208.45-0.35 206.68 0.15 204.9 0.65 202.7 0.65L202.7 0.65Q198.85 0.65 196.03-0.75 193.2-2.15 191.68-4.93 190.15-7.7 190.15-11.7L190.15-11.7Q190.15-14.55 190.98-16.78 191.8-19 193.28-20.55 194.75-22.1 196.8-22.93 198.85-23.75 201.25-23.75L201.25-23.75Q204.3-23.75 206.63-22.45 208.95-21.15 210.28-18.82 211.6-16.5 211.6-13.5L211.6-13.5Q211.6-12.4 211.1-11.93 210.6-11.45 209.7-11.35L209.7-11.35ZM236.5-2.75L236.5-2.75Q239.85-2.75 241.58-4.28 243.3-5.8 243.3-8.2L243.3-8.2Q243.3-10.25 241.98-11.6 240.65-12.95 237.8-13.75L237.8-13.75 233.45-15.05Q231.35-15.7 229.8-16.73 228.25-17.75 227.43-19.28 226.6-20.8 226.6-22.85L226.6-22.85Q226.6-26.7 229.4-28.88 232.2-31.05 236.85-31.05L236.85-31.05Q239.55-31.05 241.68-30.48 243.8-29.9 245.03-29 246.25-28.1 246.25-27.1L246.25-27.1Q246.25-26.45 245.9-25.93 245.55-25.4 245-25.1L245-25.1Q243.75-26.1 241.63-26.85 239.5-27.6 237-27.6L237-27.6Q234.1-27.6 232.4-26.33 230.7-25.05 230.7-22.85L230.7-22.85Q230.7-21.1 231.93-20 233.15-18.9 235.9-18.1L235.9-18.1 238.95-17.2Q242.9-16.1 245.18-14 247.45-11.9 247.45-8.2L247.45-8.2Q247.45-4.25 244.58-1.8 241.7 0.65 236.5 0.65L236.5 0.65Q233.45 0.65 231.18-0.03 228.9-0.7 227.63-1.73 226.35-2.75 226.35-3.75L226.35-3.75Q226.35-4.6 226.88-5.18 227.4-5.75 228.1-6L228.1-6Q229.25-4.9 231.35-3.83 233.45-2.75 236.5-2.75ZM253.55-8.45L253.55-8.45 253.55-13 257.55-13 257.55-8.65Q257.55-5.45 259.25-4.05 260.95-2.65 263.95-2.65L263.95-2.65Q265.95-2.65 267.35-3.08 268.75-3.5 269.55-3.95L269.55-3.95 269.55-13 273.55-13 273.55-4.1Q273.55-3.05 273.28-2.43 273-1.8 271.95-1.2L271.95-1.2Q270.85-0.55 268.8 0.05 266.75 0.65 263.9 0.65L263.9 0.65Q260.6 0.65 258.28-0.33 255.95-1.3 254.75-3.33 253.55-5.35 253.55-8.45ZM273.55-21.5L273.55-10.4 269.55-10.4 269.55-23Q269.8-23.1 270.33-23.23 270.85-23.35 271.4-23.35L271.4-23.35Q272.5-23.35 273.03-22.93 273.55-22.5 273.55-21.5L273.55-21.5ZM257.55-21.5L257.55-10.4 253.55-10.4 253.55-23Q253.8-23.1 254.33-23.23 254.85-23.35 255.45-23.35L255.45-23.35Q256.5-23.35 257.03-22.93 257.55-22.5 257.55-21.5L257.55-21.5ZM297.35-6.15L297.35-6.15Q297.35-2.95 295-1.15 292.65 0.65 288.2 0.65L288.2 0.65Q284.4 0.65 282-0.53 279.6-1.7 279.6-3.1L279.6-3.1Q279.6-3.7 279.93-4.28 280.25-4.85 280.9-5.2L280.9-5.2Q282.25-4.25 284.05-3.45 285.85-2.65 288.15-2.65L288.15-2.65Q293.35-2.65 293.35-6.15L293.35-6.15Q293.35-7.6 292.48-8.53 291.6-9.45 289.9-9.85L289.9-9.85 285.75-10.95Q282.7-11.7 281.3-13.28 279.9-14.85 279.9-17.2L279.9-17.2Q279.9-19.85 282.05-21.8 284.2-23.75 288.6-23.75L288.6-23.75Q290.95-23.75 292.7-23.28 294.45-22.8 295.43-22.03 296.4-21.25 296.4-20.35L296.4-20.35Q296.4-19.7 296.08-19.2 295.75-18.7 295.2-18.45L295.2-18.45Q294.6-18.85 293.68-19.33 292.75-19.8 291.5-20.13 290.25-20.45 288.75-20.45L288.75-20.45Q286.55-20.45 285.2-19.6 283.85-18.75 283.85-17.2L283.85-17.2Q283.85-16.1 284.63-15.28 285.4-14.45 287.1-14.05L287.1-14.05 290.55-13.2Q293.95-12.4 295.65-10.68 297.35-8.95 297.35-6.15ZM303.45-6.05L303.45-13.2 307.45-13.2 307.45-6.3Q307.45-4.3 308.6-3.48 309.75-2.65 311.75-2.65L311.75-2.65Q312.6-2.65 313.65-2.95 314.7-3.25 315.4-3.65L315.4-3.65Q315.7-3.35 315.95-2.9 316.2-2.45 316.2-1.85L316.2-1.85Q316.2-0.75 314.9-0.05 313.6 0.65 311.3 0.65L311.3 0.65Q307.8 0.65 305.63-0.9 303.45-2.45 303.45-6.05L303.45-6.05ZM314.6-19.3L305.5-19.3 305.5-22.6 315.65-22.6Q315.8-22.4 315.95-21.95 316.1-21.5 316.1-21L316.1-21Q316.1-20.2 315.7-19.75 315.3-19.3 314.6-19.3L314.6-19.3ZM307.45-28.35L307.45-11.7 303.45-11.7 303.45-29.8Q303.7-29.9 304.23-30.03 304.75-30.15 305.35-30.15L305.35-30.15Q306.4-30.15 306.93-29.73 307.45-29.3 307.45-28.35L307.45-28.35ZM330.25 0.7L330.25 0.7Q325.55 0.7 322.98-1.15 320.4-3 320.4-6.5L320.4-6.5Q320.4-9.75 322.58-11.48 324.75-13.2 328.6-13.55L328.6-13.55 335.7-14.25 335.7-15.65Q335.7-18.15 334.2-19.3 332.7-20.45 330.15-20.45L330.15-20.45Q328.1-20.45 326.23-19.85 324.35-19.25 322.9-18.5L322.9-18.5Q322.5-18.85 322.18-19.33 321.85-19.8 321.85-20.3L321.85-20.3Q321.85-21.6 323.3-22.3L323.3-22.3Q324.65-23 326.43-23.38 328.2-23.75 330.2-23.75L330.2-23.75Q334.55-23.75 337.1-21.8 339.65-19.85 339.65-15.65L339.65-15.65 339.65-3.8Q339.65-2.7 339.23-2.13 338.8-1.55 337.95-1.05L337.95-1.05Q336.75-0.4 334.75 0.15 332.75 0.7 330.25 0.7ZM330.25-2.6L330.25-2.6Q332.35-2.6 333.73-3.03 335.1-3.45 335.7-3.85L335.7-3.85 335.7-11.1 329.5-10.45Q326.9-10.25 325.65-9.3 324.4-8.35 324.4-6.55L324.4-6.55Q324.4-4.7 325.88-3.65 327.35-2.6 330.25-2.6ZM346.6-30.4L346.6-30.4Q346.6-31.45 347.35-32.18 348.1-32.9 349.2-32.9L349.2-32.9Q350.35-32.9 351.05-32.18 351.75-31.45 351.75-30.4L351.75-30.4Q351.75-29.35 351.05-28.63 350.35-27.9 349.2-27.9L349.2-27.9Q348.1-27.9 347.35-28.63 346.6-29.35 346.6-30.4ZM347.2-1.55L347.2-13.2 351.2-13.2 351.2-0.1Q350.95 0 350.45 0.13 349.95 0.25 349.35 0.25L349.35 0.25Q348.3 0.25 347.75-0.18 347.2-0.6 347.2-1.55L347.2-1.55ZM351.2-21.5L351.2-11.25 347.2-11.25 347.2-23Q347.45-23.1 347.98-23.23 348.5-23.35 349.1-23.35L349.1-23.35Q350.15-23.35 350.68-22.93 351.2-22.5 351.2-21.5L351.2-21.5ZM379-15.25L379-15.25 379-10.15 375-10.15 375-15.05Q375-17.85 373.43-19.15 371.85-20.45 369.2-20.45L369.2-20.45Q367.2-20.45 365.65-19.95 364.1-19.45 363-18.8L363-18.8 363-10.15 359-10.15 359-18.6Q359-19.65 359.43-20.33 359.85-21 360.9-21.65L360.9-21.65Q362.2-22.4 364.35-23.08 366.5-23.75 369.2-23.75L369.2-23.75Q373.75-23.75 376.38-21.68 379-19.6 379-15.25ZM359-1.55L359-12.9 363-12.9 363-0.1Q362.75 0 362.25 0.13 361.75 0.25 361.15 0.25L361.15 0.25Q360.1 0.25 359.55-0.18 359-0.6 359-1.55L359-1.55ZM375-1.55L375-12.9 379-12.9 379-0.1Q378.75 0 378.23 0.13 377.7 0.25 377.15 0.25L377.15 0.25Q376.05 0.25 375.53-0.18 375-0.6 375-1.55L375-1.55ZM394.75 0.7L394.75 0.7Q390.05 0.7 387.48-1.15 384.9-3 384.9-6.5L384.9-6.5Q384.9-9.75 387.08-11.48 389.25-13.2 393.1-13.55L393.1-13.55 400.2-14.25 400.2-15.65Q400.2-18.15 398.7-19.3 397.2-20.45 394.65-20.45L394.65-20.45Q392.6-20.45 390.73-19.85 388.85-19.25 387.4-18.5L387.4-18.5Q387-18.85 386.68-19.33 386.35-19.8 386.35-20.3L386.35-20.3Q386.35-21.6 387.8-22.3L387.8-22.3Q389.15-23 390.93-23.38 392.7-23.75 394.7-23.75L394.7-23.75Q399.05-23.75 401.6-21.8 404.15-19.85 404.15-15.65L404.15-15.65 404.15-3.8Q404.15-2.7 403.73-2.13 403.3-1.55 402.45-1.05L402.45-1.05Q401.25-0.4 399.25 0.15 397.25 0.7 394.75 0.7ZM394.75-2.6L394.75-2.6Q396.85-2.6 398.23-3.03 399.6-3.45 400.2-3.85L400.2-3.85 400.2-11.1 394-10.45Q391.4-10.25 390.15-9.3 388.9-8.35 388.9-6.55L388.9-6.55Q388.9-4.7 390.38-3.65 391.85-2.6 394.75-2.6ZM421.75-23.75L421.75-23.75Q424.85-23.75 427.33-22.43 429.8-21.1 431.23-18.4 432.65-15.7 432.65-11.55L432.65-11.55Q432.65-7.35 431.18-4.65 429.7-1.95 427.1-0.65 424.5 0.65 421.05 0.65L421.05 0.65Q418.6 0.65 416.63 0.05 414.65-0.55 413.4-1.25L413.4-1.25Q412.35-1.95 411.95-2.55 411.55-3.15 411.55-4.2L411.55-4.2 411.55-20.85 415.55-20.85 415.55-4.2Q416.3-3.65 417.75-3.15 419.2-2.65 421.05-2.65L421.05-2.65Q424.45-2.65 426.53-4.8 428.6-6.95 428.6-11.55L428.6-11.55Q428.6-16.2 426.5-18.32 424.4-20.45 421.15-20.45L421.15-20.45Q419.15-20.45 417.6-19.68 416.05-18.9 415.05-17.9L415.05-17.9 414.3-21.15Q415.4-22 417.25-22.88 419.1-23.75 421.75-23.75ZM415.55-30.95L415.55-20.05 411.55-20.05 411.55-32.4Q411.8-32.5 412.33-32.63 412.85-32.75 413.45-32.75L413.45-32.75Q414.5-32.75 415.03-32.33 415.55-31.9 415.55-30.95L415.55-30.95ZM439.3-1.55L439.3-13.2 443.3-12.6 443.3-0.1Q443.05 0 442.55 0.13 442.05 0.25 441.45 0.25L441.45 0.25Q440.4 0.25 439.85-0.18 439.3-0.6 439.3-1.55L439.3-1.55ZM443.3-30.95L443.3-10.7 439.3-11.25 439.3-32.4Q439.55-32.5 440.08-32.63 440.6-32.75 441.15-32.75L441.15-32.75Q442.25-32.75 442.78-32.33 443.3-31.9 443.3-30.95L443.3-30.95ZM455.9-5.15L455.9-5.15Q455.05-6.75 453.85-9.47 452.65-12.2 451.38-15.58 450.1-18.95 448.95-22.45L448.95-22.45Q449.3-22.95 449.88-23.25 450.45-23.55 451.1-23.55L451.1-23.55Q451.95-23.55 452.5-23.1 453.05-22.65 453.4-21.6L453.4-21.6Q454.9-17.4 456.55-13.25 458.2-9.1 460.2-4.65L460.2-4.65 460.4-4.65Q461.45-6.75 462.6-9.9 463.75-13.05 464.8-16.55 465.85-20.05 466.55-23.15L466.55-23.15Q466.9-23.3 467.33-23.43 467.75-23.55 468.25-23.55L468.25-23.55Q469.1-23.55 469.65-23.13 470.2-22.7 470.2-21.85L470.2-21.85Q470.2-21.05 469.75-19.18 469.3-17.3 468.53-14.83 467.75-12.35 466.73-9.58 465.7-6.8 464.53-4.13 463.35-1.45 462.15 0.7L462.15 0.7Q459.85 4.95 457.95 7.23 456.05 9.5 454.45 9.5L454.45 9.5Q453.3 9.5 452.68 8.9 452.05 8.3 451.9 7.5L451.9 7.5Q453 6.55 454.38 4.98 455.75 3.4 457.03 1.58 458.3-0.25 459.1-1.9L459.1-1.9Q458.25-2.15 457.53-2.8 456.8-3.45 455.9-5.15ZM475.3 4.7L475.3 4.7Q474.5 6.05 473.35 6.05L473.35 6.05Q472.25 6.05 471.55 5.2L471.55 5.2Q472 3.9 472.58 2.13 473.15 0.35 473.65-1.5 474.15-3.35 474.4-4.7L474.4-4.7Q474.8-4.9 475.28-5.03 475.75-5.15 476.3-5.15L476.3-5.15Q477.2-5.15 477.7-4.73 478.2-4.3 478.2-3.3L478.2-3.3Q478.2-2.2 477.68-0.58 477.15 1.05 476.45 2.53 475.75 4 475.3 4.7ZM493.65-1.6L493.65-18.15 497.7-18.15 497.7-0.1Q497.45 0 496.95 0.13 496.45 0.25 495.85 0.25L495.85 0.25Q494.75 0.25 494.2-0.2 493.65-0.65 493.65-1.6L493.65-1.6ZM497.7-28.8L497.7-14.8 493.65-14.8 493.65-30.3Q493.9-30.4 494.43-30.53 494.95-30.65 495.55-30.65L495.55-30.65Q496.65-30.65 497.18-30.23 497.7-29.8 497.7-28.8L497.7-28.8ZM526-15.25L526-15.25 526-10.15 522-10.15 522-15.05Q522-17.85 520.43-19.15 518.85-20.45 516.2-20.45L516.2-20.45Q514.2-20.45 512.65-19.95 511.1-19.45 510-18.8L510-18.8 510-10.15 506-10.15 506-18.6Q506-19.65 506.43-20.33 506.85-21 507.9-21.65L507.9-21.65Q509.2-22.4 511.35-23.08 513.5-23.75 516.2-23.75L516.2-23.75Q520.75-23.75 523.38-21.68 526-19.6 526-15.25ZM506-1.55L506-12.9 510-12.9 510-0.1Q509.75 0 509.25 0.13 508.75 0.25 508.15 0.25L508.15 0.25Q507.1 0.25 506.55-0.18 506-0.6 506-1.55L506-1.55ZM522-1.55L522-12.9 526-12.9 526-0.1Q525.75 0 525.23 0.13 524.7 0.25 524.15 0.25L524.15 0.25Q523.05 0.25 522.53-0.18 522-0.6 522-1.55L522-1.55ZM553.5-15.25L553.5-15.25 553.5-10.15 549.5-10.15 549.5-15.05Q549.5-17.85 547.93-19.15 546.35-20.45 543.7-20.45L543.7-20.45Q541.7-20.45 540.15-19.95 538.6-19.45 537.5-18.8L537.5-18.8 537.5-10.15 533.5-10.15 533.5-18.6Q533.5-19.65 533.93-20.33 534.35-21 535.4-21.65L535.4-21.65Q536.7-22.4 538.85-23.08 541-23.75 543.7-23.75L543.7-23.75Q548.25-23.75 550.88-21.68 553.5-19.6 553.5-15.25ZM533.5-1.55L533.5-12.9 537.5-12.9 537.5-0.1Q537.25 0 536.75 0.13 536.25 0.25 535.65 0.25L535.65 0.25Q534.6 0.25 534.05-0.18 533.5-0.6 533.5-1.55L533.5-1.55ZM549.5-1.55L549.5-12.9 553.5-12.9 553.5-0.1Q553.25 0 552.73 0.13 552.2 0.25 551.65 0.25L551.65 0.25Q550.55 0.25 550.03-0.18 549.5-0.6 549.5-1.55L549.5-1.55ZM582.45-11.55L582.45-11.55Q582.45-7.85 581.05-5.1 579.65-2.35 577.1-0.85 574.55 0.65 571.1 0.65L571.1 0.65Q567.65 0.65 565.08-0.85 562.5-2.35 561.1-5.1 559.7-7.85 559.7-11.55L559.7-11.55Q559.7-15.3 561.13-18.03 562.55-20.75 565.13-22.25 567.7-23.75 571.1-23.75L571.1-23.75Q574.5-23.75 577.05-22.25 579.6-20.75 581.03-18.03 582.45-15.3 582.45-11.55ZM571.1-20.45L571.1-20.45Q567.75-20.45 565.78-18.07 563.8-15.7 563.8-11.55L563.8-11.55Q563.8-7.35 565.73-5 567.65-2.65 571.1-2.65L571.1-2.65Q574.5-2.65 576.43-5.03 578.35-7.4 578.35-11.55L578.35-11.55Q578.35-15.7 576.43-18.07 574.5-20.45 571.1-20.45ZM605.95-23.55L605.95-23.55Q606.8-23.55 607.33-23.1 607.85-22.65 607.85-21.8L607.85-21.8Q607.85-21.15 607.3-19.35 606.75-17.55 605.85-15.05 604.95-12.55 603.88-9.83 602.8-7.1 601.68-4.58 600.55-2.05 599.6-0.2L599.6-0.2Q599.35 0 598.73 0.15 598.1 0.3 597.4 0.3L597.4 0.3Q596.55 0.3 595.9 0.03 595.25-0.25 595-0.75L595-0.75Q594.45-1.75 593.58-3.68 592.7-5.6 591.7-8.05 590.7-10.5 589.68-13.13 588.65-15.75 587.8-18.18 586.95-20.6 586.4-22.45L586.4-22.45Q586.75-22.95 587.35-23.25 587.95-23.55 588.55-23.55L588.55-23.55Q589.45-23.55 589.95-23.1 590.45-22.65 590.8-21.6L590.8-21.6 593.9-12.65Q594.3-11.5 594.95-9.8 595.6-8.1 596.25-6.4 596.9-4.7 597.3-3.55L597.3-3.55 597.5-3.55Q599.5-8.6 601.25-13.53 603-18.45 604.25-23.15L604.25-23.15Q604.9-23.55 605.95-23.55ZM621.65 0.7L621.65 0.7Q616.95 0.7 614.38-1.15 611.8-3 611.8-6.5L611.8-6.5Q611.8-9.75 613.98-11.48 616.15-13.2 620-13.55L620-13.55 627.1-14.25 627.1-15.65Q627.1-18.15 625.6-19.3 624.1-20.45 621.55-20.45L621.55-20.45Q619.5-20.45 617.63-19.85 615.75-19.25 614.3-18.5L614.3-18.5Q613.9-18.85 613.58-19.33 613.25-19.8 613.25-20.3L613.25-20.3Q613.25-21.6 614.7-22.3L614.7-22.3Q616.05-23 617.83-23.38 619.6-23.75 621.6-23.75L621.6-23.75Q625.95-23.75 628.5-21.8 631.05-19.85 631.05-15.65L631.05-15.65 631.05-3.8Q631.05-2.7 630.63-2.13 630.2-1.55 629.35-1.05L629.35-1.05Q628.15-0.4 626.15 0.15 624.15 0.7 621.65 0.7ZM621.65-2.6L621.65-2.6Q623.75-2.6 625.13-3.03 626.5-3.45 627.1-3.85L627.1-3.85 627.1-11.1 620.9-10.45Q618.3-10.25 617.05-9.3 615.8-8.35 615.8-6.55L615.8-6.55Q615.8-4.7 617.28-3.65 618.75-2.6 621.65-2.6ZM638.4-6.05L638.4-13.2 642.4-13.2 642.4-6.3Q642.4-4.3 643.55-3.48 644.7-2.65 646.7-2.65L646.7-2.65Q647.55-2.65 648.6-2.95 649.65-3.25 650.35-3.65L650.35-3.65Q650.65-3.35 650.9-2.9 651.15-2.45 651.15-1.85L651.15-1.85Q651.15-0.75 649.85-0.05 648.55 0.65 646.25 0.65L646.25 0.65Q642.75 0.65 640.58-0.9 638.4-2.45 638.4-6.05L638.4-6.05ZM649.55-19.3L640.45-19.3 640.45-22.6 650.6-22.6Q650.75-22.4 650.9-21.95 651.05-21.5 651.05-21L651.05-21Q651.05-20.2 650.65-19.75 650.25-19.3 649.55-19.3L649.55-19.3ZM642.4-28.35L642.4-11.7 638.4-11.7 638.4-29.8Q638.65-29.9 639.18-30.03 639.7-30.15 640.3-30.15L640.3-30.15Q641.35-30.15 641.88-29.73 642.4-29.3 642.4-28.35L642.4-28.35ZM675.2-11.35L658.4-9 658.2-12.15 673.3-14.2Q673.1-16.95 671.4-18.73 669.7-20.5 666.7-20.5L666.7-20.5Q663.6-20.5 661.58-18.28 659.55-16.05 659.55-11.9L659.55-11.9 659.55-10.8Q659.9-6.8 662.18-4.73 664.45-2.65 668.4-2.65L668.4-2.65Q670.5-2.65 672.2-3.35 673.9-4.05 674.9-4.85L674.9-4.85Q675.45-4.5 675.78-4.03 676.1-3.55 676.1-2.95L676.1-2.95Q676.1-2 675.03-1.18 673.95-0.35 672.18 0.15 670.4 0.65 668.2 0.65L668.2 0.65Q664.35 0.65 661.53-0.75 658.7-2.15 657.18-4.93 655.65-7.7 655.65-11.7L655.65-11.7Q655.65-14.55 656.48-16.78 657.3-19 658.78-20.55 660.25-22.1 662.3-22.93 664.35-23.75 666.75-23.75L666.75-23.75Q669.8-23.75 672.13-22.45 674.45-21.15 675.78-18.82 677.1-16.5 677.1-13.5L677.1-13.5Q677.1-12.4 676.6-11.93 676.1-11.45 675.2-11.35L675.2-11.35ZM697.65-27.1L697.65-14.9 703.4-14.9Q707.1-14.9 709.2-16.5 711.3-18.1 711.3-21.25L711.3-21.25Q711.3-24.35 709.1-25.95 706.9-27.55 702.8-27.55L702.8-27.55Q701.45-27.55 700.08-27.43 698.7-27.3 697.65-27.1L697.65-27.1ZM703.4-11.5L703.4-11.5 693.6-11.5 693.6-28.2Q693.6-29 694.03-29.43 694.45-29.85 695.25-30.1L695.25-30.1Q696.7-30.55 698.83-30.75 700.95-30.95 702.95-30.95L702.95-30.95Q709.2-30.95 712.3-28.4 715.4-25.85 715.4-21.25L715.4-21.25Q715.4-18.3 714.05-16.1 712.7-13.9 710.05-12.7 707.4-11.5 703.4-11.5ZM711.7-1.3L703.5-12.8 706.5-14.3Q707.9-12.55 709.4-10.65 710.9-8.75 712.3-6.95 713.7-5.15 714.8-3.73 715.9-2.3 716.5-1.5L716.5-1.5Q716.3-0.65 715.63-0.15 714.95 0.35 714.25 0.35L714.25 0.35Q713.4 0.35 712.85-0.08 712.3-0.5 711.7-1.3L711.7-1.3ZM693.6-1.6L693.6-12.6 697.7-12.6 697.7-0.1Q697.4 0 696.9 0.13 696.4 0.25 695.8 0.25L695.8 0.25Q694.7 0.25 694.15-0.2 693.6-0.65 693.6-1.6L693.6-1.6ZM743.8-11.55L743.8-11.55Q743.8-7.85 742.4-5.1 741-2.35 738.45-0.85 735.9 0.65 732.45 0.65L732.45 0.65Q729 0.65 726.43-0.85 723.85-2.35 722.45-5.1 721.05-7.85 721.05-11.55L721.05-11.55Q721.05-15.3 722.48-18.03 723.9-20.75 726.48-22.25 729.05-23.75 732.45-23.75L732.45-23.75Q735.85-23.75 738.4-22.25 740.95-20.75 742.38-18.03 743.8-15.3 743.8-11.55ZM732.45-20.45L732.45-20.45Q729.1-20.45 727.13-18.07 725.15-15.7 725.15-11.55L725.15-11.55Q725.15-7.35 727.08-5 729-2.65 732.45-2.65L732.45-2.65Q735.85-2.65 737.78-5.03 739.7-7.4 739.7-11.55L739.7-11.55Q739.7-15.7 737.78-18.07 735.85-20.45 732.45-20.45ZM760.3-23.75L760.3-23.75Q763.4-23.75 765.88-22.43 768.35-21.1 769.78-18.4 771.2-15.7 771.2-11.55L771.2-11.55Q771.2-7.35 769.73-4.65 768.25-1.95 765.65-0.65 763.05 0.65 759.6 0.65L759.6 0.65Q757.15 0.65 755.18 0.05 753.2-0.55 751.95-1.25L751.95-1.25Q750.9-1.95 750.5-2.55 750.1-3.15 750.1-4.2L750.1-4.2 750.1-20.85 754.1-20.85 754.1-4.2Q754.85-3.65 756.3-3.15 757.75-2.65 759.6-2.65L759.6-2.65Q763-2.65 765.08-4.8 767.15-6.95 767.15-11.55L767.15-11.55Q767.15-16.2 765.05-18.32 762.95-20.45 759.7-20.45L759.7-20.45Q757.7-20.45 756.15-19.68 754.6-18.9 753.6-17.9L753.6-17.9 752.85-21.15Q753.95-22 755.8-22.88 757.65-23.75 760.3-23.75ZM754.1-30.95L754.1-20.05 750.1-20.05 750.1-32.4Q750.35-32.5 750.88-32.63 751.4-32.75 752-32.75L752-32.75Q753.05-32.75 753.58-32.33 754.1-31.9 754.1-30.95L754.1-30.95ZM798.9-11.55L798.9-11.55Q798.9-7.85 797.5-5.1 796.1-2.35 793.55-0.85 791 0.65 787.55 0.65L787.55 0.65Q784.1 0.65 781.53-0.85 778.95-2.35 777.55-5.1 776.15-7.85 776.15-11.55L776.15-11.55Q776.15-15.3 777.58-18.03 779-20.75 781.58-22.25 784.15-23.75 787.55-23.75L787.55-23.75Q790.95-23.75 793.5-22.25 796.05-20.75 797.48-18.03 798.9-15.3 798.9-11.55ZM787.55-20.45L787.55-20.45Q784.2-20.45 782.23-18.07 780.25-15.7 780.25-11.55L780.25-11.55Q780.25-7.35 782.18-5 784.1-2.65 787.55-2.65L787.55-2.65Q790.95-2.65 792.88-5.03 794.8-7.4 794.8-11.55L794.8-11.55Q794.8-15.7 792.88-18.07 790.95-20.45 787.55-20.45ZM805.15-6.05L805.15-13.2 809.15-13.2 809.15-6.3Q809.15-4.3 810.3-3.48 811.45-2.65 813.45-2.65L813.45-2.65Q814.3-2.65 815.35-2.95 816.4-3.25 817.1-3.65L817.1-3.65Q817.4-3.35 817.65-2.9 817.9-2.45 817.9-1.85L817.9-1.85Q817.9-0.75 816.6-0.05 815.3 0.65 813 0.65L813 0.65Q809.5 0.65 807.33-0.9 805.15-2.45 805.15-6.05L805.15-6.05ZM816.3-19.3L807.2-19.3 807.2-22.6 817.35-22.6Q817.5-22.4 817.65-21.95 817.8-21.5 817.8-21L817.8-21Q817.8-20.2 817.4-19.75 817-19.3 816.3-19.3L816.3-19.3ZM809.15-28.35L809.15-11.7 805.15-11.7 805.15-29.8Q805.4-29.9 805.93-30.03 806.45-30.15 807.05-30.15L807.05-30.15Q808.1-30.15 808.63-29.73 809.15-29.3 809.15-28.35L809.15-28.35ZM823.35-30.4L823.35-30.4Q823.35-31.45 824.1-32.18 824.85-32.9 825.95-32.9L825.95-32.9Q827.1-32.9 827.8-32.18 828.5-31.45 828.5-30.4L828.5-30.4Q828.5-29.35 827.8-28.63 827.1-27.9 825.95-27.9L825.95-27.9Q824.85-27.9 824.1-28.63 823.35-29.35 823.35-30.4ZM823.95-1.55L823.95-13.2 827.95-13.2 827.95-0.1Q827.7 0 827.2 0.13 826.7 0.25 826.1 0.25L826.1 0.25Q825.05 0.25 824.5-0.18 823.95-0.6 823.95-1.55L823.95-1.55ZM827.95-21.5L827.95-11.25 823.95-11.25 823.95-23Q824.2-23.1 824.73-23.23 825.25-23.35 825.85-23.35L825.85-23.35Q826.9-23.35 827.43-22.93 827.95-22.5 827.95-21.5L827.95-21.5ZM846.45-20.4L846.45-20.4Q843.05-20.4 840.8-18.1 838.55-15.8 838.55-11.5L838.55-11.5Q838.55-7.25 840.73-4.95 842.9-2.65 846.45-2.65L846.45-2.65Q848.55-2.65 849.95-3.23 851.35-3.8 852.45-4.55L852.45-4.55Q853-4.25 853.35-3.8 853.7-3.35 853.7-2.7L853.7-2.7Q853.7-1.3 851.63-0.33 849.55 0.65 846.45 0.65L846.45 0.65Q843 0.65 840.28-0.68 837.55-2 836-4.7 834.45-7.4 834.45-11.5L834.45-11.5Q834.45-15.55 836.05-18.28 837.65-21 840.38-22.38 843.1-23.75 846.35-23.75L846.35-23.75Q849.45-23.75 851.48-22.7 853.5-21.65 853.5-20.3L853.5-20.3Q853.5-19.7 853.15-19.25 852.8-18.8 852.25-18.55L852.25-18.55Q851.15-19.3 849.83-19.85 848.5-20.4 846.45-20.4ZM867.9 0.7L867.9 0.7Q863.2 0.7 860.63-1.15 858.05-3 858.05-6.5L858.05-6.5Q858.05-9.75 860.23-11.48 862.4-13.2 866.25-13.55L866.25-13.55 873.35-14.25 873.35-15.65Q873.35-18.15 871.85-19.3 870.35-20.45 867.8-20.45L867.8-20.45Q865.75-20.45 863.88-19.85 862-19.25 860.55-18.5L860.55-18.5Q860.15-18.85 859.83-19.33 859.5-19.8 859.5-20.3L859.5-20.3Q859.5-21.6 860.95-22.3L860.95-22.3Q862.3-23 864.08-23.38 865.85-23.75 867.85-23.75L867.85-23.75Q872.2-23.75 874.75-21.8 877.3-19.85 877.3-15.65L877.3-15.65 877.3-3.8Q877.3-2.7 876.88-2.13 876.45-1.55 875.6-1.05L875.6-1.05Q874.4-0.4 872.4 0.15 870.4 0.7 867.9 0.7ZM867.9-2.6L867.9-2.6Q870-2.6 871.38-3.03 872.75-3.45 873.35-3.85L873.35-3.85 873.35-11.1 867.15-10.45Q864.55-10.25 863.3-9.3 862.05-8.35 862.05-6.55L862.05-6.55Q862.05-4.7 863.53-3.65 865-2.6 867.9-2.6ZM885-1.55L885-13.2 889-12.6 889-0.1Q888.75 0 888.25 0.13 887.75 0.25 887.15 0.25L887.15 0.25Q886.1 0.25 885.55-0.18 885-0.6 885-1.55L885-1.55ZM889-30.95L889-10.7 885-11.25 885-32.4Q885.25-32.5 885.78-32.63 886.3-32.75 886.85-32.75L886.85-32.75Q887.95-32.75 888.48-32.33 889-31.9 889-30.95L889-30.95ZM897.3-1.55L897.3-13.2 901.3-12.6 901.3-0.1Q901.05 0 900.55 0.13 900.05 0.25 899.45 0.25L899.45 0.25Q898.4 0.25 897.85-0.18 897.3-0.6 897.3-1.55L897.3-1.55ZM901.3-30.95L901.3-10.7 897.3-11.25 897.3-32.4Q897.55-32.5 898.08-32.63 898.6-32.75 899.15-32.75L899.15-32.75Q900.25-32.75 900.78-32.33 901.3-31.9 901.3-30.95L901.3-30.95ZM913.9-5.15L913.9-5.15Q913.05-6.75 911.85-9.47 910.65-12.2 909.38-15.58 908.1-18.95 906.95-22.45L906.95-22.45Q907.3-22.95 907.88-23.25 908.45-23.55 909.1-23.55L909.1-23.55Q909.95-23.55 910.5-23.1 911.05-22.65 911.4-21.6L911.4-21.6Q912.9-17.4 914.55-13.25 916.2-9.1 918.2-4.65L918.2-4.65 918.4-4.65Q919.45-6.75 920.6-9.9 921.75-13.05 922.8-16.55 923.85-20.05 924.55-23.15L924.55-23.15Q924.9-23.3 925.33-23.43 925.75-23.55 926.25-23.55L926.25-23.55Q927.1-23.55 927.65-23.13 928.2-22.7 928.2-21.85L928.2-21.85Q928.2-21.05 927.75-19.18 927.3-17.3 926.53-14.83 925.75-12.35 924.73-9.58 923.7-6.8 922.53-4.13 921.35-1.45 920.15 0.7L920.15 0.7Q917.85 4.95 915.95 7.23 914.05 9.5 912.45 9.5L912.45 9.5Q911.3 9.5 910.68 8.9 910.05 8.3 909.9 7.5L909.9 7.5Q911 6.55 912.38 4.98 913.75 3.4 915.03 1.58 916.3-0.25 917.1-1.9L917.1-1.9Q916.25-2.15 915.53-2.8 914.8-3.45 913.9-5.15Z" opacity="1" transform="matrix(1,0,0,1,0,0)" fill="white" class="slogan-text-1" id="SvgjsPath6238"></path></svg></g></svg></g></svg></g></svg></g></svg></g></svg></g></svg></g><path d="M194.576 91.613L194.576 28.02 3.417 28.02 3.417 219.18 194.576 219.18 194.576 155.587 191.6 155.587 191.6 216.204 6.393 216.204 6.393 30.996 191.6 30.996 191.6 91.613Z" fill="black" stroke="transparent"></path></svg></g><defs><mask></mask></defs></svg><rect width="395.52" height="247.2" fill="black" stroke="none" visibility="hidden"></rect></g></mask><linearGradient x1="0" x2="1" y1="0.548" y2="0.55" id="7fedb7da-ba38-4ec2-8c90-e20475a454f2"><stop stop-color="#ff6cab" offset="0"></stop><stop stop-color="#7366ff" offset="1"></stop></linearGradient><rect width="395.52" height="247.2" fill="#000000" mask="url(#aeeac4e1-cc81-46b0-8784-828ede32b8e5)" data-fill-palette-color="secondary"></rect><mask id="1ac9c493-5819-45e7-b002-2a565ff1bbc9"><g id="SvgjsG6261"><svg viewBox="0 0 395.52 247.2" height="247.2" width="395.52"><g><svg></svg></g><g><svg viewBox="0 0 395.52 247.2" height="247.2" width="395.52"><g transform="matrix(1,0,0,1,75.54432,97.61282627395774)"><svg viewBox="0 0 244.43135999999998 51.97434745208452" height="51.97434745208452" width="244.43135999999998"><g><svg viewBox="0 0 244.43135999999998 51.97434745208452" height="51.97434745208452" width="244.43135999999998"><g><svg viewBox="0 0 244.43135999999998 51.97434745208452" height="51.97434745208452" width="244.43135999999998"><g><svg viewBox="0 0 244.43135999999998 51.97434745208452" height="51.97434745208452" width="244.43135999999998"><g id="SvgjsG6260"><svg viewBox="0 0 244.43135999999998 51.97434745208452" height="51.97434745208452" width="244.43135999999998" id="SvgjsSvg6259"><g><svg viewBox="0 0 244.43135999999998 33.00015221350078" height="33.00015221350078" width="244.43135999999998"><g transform="matrix(1,0,0,1,0,0)"><svg width="244.43135999999998" viewBox="1.25 -32.9 318.47 43" height="33.00015221350078" data-palette-color="#0b94ff"><path d="M23.35-26.95L13.05-26.95 12.8-30.4 24.45-30.4Q24.6-30.2 24.75-29.75 24.9-29.3 24.9-28.8L24.9-28.8Q24.9-28 24.5-27.48 24.1-26.95 23.35-26.95L23.35-26.95ZM2.8-30.4L13.15-30.4 13.4-26.95 1.7-26.95Q1.55-27.2 1.4-27.65 1.25-28.1 1.25-28.6L1.25-28.6Q1.25-29.45 1.65-29.93 2.05-30.4 2.8-30.4L2.8-30.4ZM11.05-1.6L11.05-28.3 15.1-28.3 15.1-0.1Q14.85 0 14.33 0.13 13.8 0.25 13.25 0.25L13.25 0.25Q12.15 0.25 11.6-0.2 11.05-0.65 11.05-1.6L11.05-1.6ZM46.1-19.2L30.8 0 29.2 0Q28.85-0.3 28.62-0.78 28.4-1.25 28.4-1.75L28.4-1.75Q28.4-2.35 28.67-2.88 28.95-3.4 29.3-3.9L29.3-3.9 44.65-23.1 46.2-23.1Q46.6-22.75 46.82-22.3 47.05-21.85 47.05-21.3L47.05-21.3Q47.05-20.75 46.8-20.25 46.55-19.75 46.1-19.2L46.1-19.2ZM30.2-23.1L45.65-23.1 45.65-19.8 29.15-19.8Q29-20.05 28.85-20.5 28.7-20.95 28.7-21.45L28.7-21.45Q28.7-22.3 29.1-22.7 29.5-23.1 30.2-23.1L30.2-23.1ZM45.85 0L29.5 0 29.5-3.25 46.95-3.25Q47.1-3.05 47.25-2.63 47.4-2.2 47.4-1.65L47.4-1.65Q47.4-0.85 47-0.43 46.6 0 45.85 0L45.85 0ZM53.35-8.45L53.35-8.45 53.35-13 57.35-13 57.35-8.65Q57.35-5.45 59.05-4.05 60.75-2.65 63.75-2.65L63.75-2.65Q65.75-2.65 67.15-3.08 68.55-3.5 69.34-3.95L69.34-3.95 69.34-13 73.34-13 73.34-4.1Q73.34-3.05 73.07-2.43 72.8-1.8 71.75-1.2L71.75-1.2Q70.65-0.55 68.59 0.05 66.55 0.65 63.7 0.65L63.7 0.65Q60.4 0.65 58.07-0.33 55.75-1.3 54.55-3.33 53.35-5.35 53.35-8.45ZM73.34-21.5L73.34-10.4 69.34-10.4 69.34-23Q69.59-23.1 70.12-23.23 70.65-23.35 71.2-23.35L71.2-23.35Q72.3-23.35 72.82-22.93 73.34-22.5 73.34-21.5L73.34-21.5ZM57.35-21.5L57.35-10.4 53.35-10.4 53.35-23Q53.6-23.1 54.12-23.23 54.65-23.35 55.25-23.35L55.25-23.35Q56.3-23.35 56.82-22.93 57.35-22.5 57.35-21.5L57.35-21.5ZM92.09-11.4L92.09-11.4 80.14-11.4Q79.99-11.75 79.89-12.13 79.79-12.5 79.79-13L79.79-13Q79.79-13.85 80.27-14.28 80.74-14.7 81.54-14.7L81.54-14.7 93.49-14.7Q93.59-14.4 93.72-14 93.84-13.6 93.84-13.15L93.84-13.15Q93.84-12.35 93.39-11.88 92.94-11.4 92.09-11.4ZM123.19-27.05L123.19-27.05Q123.19-26.4 122.77-25.88 122.34-25.35 121.79-25.1L121.79-25.1Q120.54-26 118.77-26.8 116.99-27.6 114.19-27.6L114.19-27.6Q111.14-27.6 108.72-26.2 106.29-24.8 104.87-22.03 103.44-19.25 103.44-15.15L103.44-15.15Q103.44-9 106.47-5.9 109.49-2.8 114.34-2.8L114.34-2.8Q116.94-2.8 118.89-3.55 120.84-4.3 122.09-5.25L122.09-5.25Q122.59-5.05 123.04-4.53 123.49-4 123.49-3.3L123.49-3.3Q123.49-2.8 123.22-2.33 122.94-1.85 122.29-1.4L122.29-1.4Q121.14-0.6 119.14 0.03 117.14 0.65 114.04 0.65L114.04 0.65Q109.89 0.65 106.52-1.13 103.14-2.9 101.19-6.4 99.24-9.9 99.24-15.15L99.24-15.15Q99.24-20.4 101.27-23.95 103.29-27.5 106.62-29.28 109.94-31.05 113.89-31.05L113.89-31.05Q116.64-31.05 118.74-30.45 120.84-29.85 122.02-28.93 123.19-28 123.19-27.05ZM149.74-14.65L149.74-9.95 145.74-9.95 145.74-14.55Q145.74-17.55 144.06-19 142.39-20.45 139.74-20.45L139.74-20.45Q137.79-20.45 136.11-19.7 134.44-18.95 133.29-17.9L133.29-17.9 132.54-21.15Q133.74-22 135.71-22.88 137.69-23.75 140.29-23.75L140.29-23.75Q144.44-23.75 147.09-21.5 149.74-19.25 149.74-14.65L149.74-14.65ZM129.79-1.55L129.79-13.2 133.79-13.2 133.79-0.1Q133.54 0 133.04 0.13 132.54 0.25 131.94 0.25L131.94 0.25Q130.89 0.25 130.34-0.18 129.79-0.6 129.79-1.55L129.79-1.55ZM145.74-1.55L145.74-13.15 149.74-13.1 149.74-0.1Q149.49 0 148.96 0.13 148.44 0.25 147.89 0.25L147.89 0.25Q146.79 0.25 146.26-0.18 145.74-0.6 145.74-1.55L145.74-1.55ZM133.79-30.95L133.79-11.25 129.79-11.25 129.79-32.4Q130.04-32.5 130.56-32.63 131.09-32.75 131.69-32.75L131.69-32.75Q132.74-32.75 133.26-32.33 133.79-31.9 133.79-30.95L133.79-30.95ZM156.89-30.4L156.89-30.4Q156.89-31.45 157.64-32.18 158.39-32.9 159.49-32.9L159.49-32.9Q160.64-32.9 161.34-32.18 162.04-31.45 162.04-30.4L162.04-30.4Q162.04-29.35 161.34-28.63 160.64-27.9 159.49-27.9L159.49-27.9Q158.39-27.9 157.64-28.63 156.89-29.35 156.89-30.4ZM157.49-1.55L157.49-13.2 161.49-13.2 161.49-0.1Q161.24 0 160.74 0.13 160.24 0.25 159.64 0.25L159.64 0.25Q158.59 0.25 158.04-0.18 157.49-0.6 157.49-1.55L157.49-1.55ZM161.49-21.5L161.49-11.25 157.49-11.25 157.49-23Q157.74-23.1 158.26-23.23 158.79-23.35 159.39-23.35L159.39-23.35Q160.44-23.35 160.96-22.93 161.49-22.5 161.49-21.5L161.49-21.5ZM189.28-15.25L189.28-15.25 189.28-10.15 185.28-10.15 185.28-15.05Q185.28-17.85 183.71-19.15 182.13-20.45 179.48-20.45L179.48-20.45Q177.48-20.45 175.93-19.95 174.38-19.45 173.28-18.8L173.28-18.8 173.28-10.15 169.28-10.15 169.28-18.6Q169.28-19.65 169.71-20.33 170.13-21 171.18-21.65L171.18-21.65Q172.48-22.4 174.63-23.08 176.78-23.75 179.48-23.75L179.48-23.75Q184.03-23.75 186.66-21.68 189.28-19.6 189.28-15.25ZM169.28-1.55L169.28-12.9 173.28-12.9 173.28-0.1Q173.03 0 172.53 0.13 172.03 0.25 171.43 0.25L171.43 0.25Q170.38 0.25 169.83-0.18 169.28-0.6 169.28-1.55L169.28-1.55ZM185.28-1.55L185.28-12.9 189.28-12.9 189.28-0.1Q189.03 0 188.51 0.13 187.98 0.25 187.43 0.25L187.43 0.25Q186.33 0.25 185.81-0.18 185.28-0.6 185.28-1.55L185.28-1.55ZM206.38-0.7L206.38-0.7Q203.48-0.7 201.03-1.83 198.58-2.95 197.08-5.5 195.58-8.05 195.58-12.25L195.58-12.25Q195.58-16.05 197.06-18.6 198.53-21.15 201.13-22.45 203.73-23.75 207.08-23.75L207.08-23.75Q209.38-23.75 211.31-23.18 213.23-22.6 214.53-21.75L214.53-21.75Q215.28-21.25 215.76-20.63 216.23-20 216.23-19.1L216.23-19.1 216.23-3.65 212.23-3.65 212.23-19.05Q211.38-19.6 210.11-20.03 208.83-20.45 207.08-20.45L207.08-20.45Q203.73-20.45 201.68-18.4 199.63-16.35 199.63-12.3L199.63-12.3Q199.63-7.8 201.71-5.9 203.78-4 206.83-4L206.83-4Q209.03-4 210.38-4.75 211.73-5.5 212.53-6.4L212.53-6.4 212.73-2.85Q211.98-2.05 210.36-1.38 208.73-0.7 206.38-0.7ZM212.23 0.75L212.23 0.75 212.23-4.5 216.23-4.5 216.23 1Q216.23 4.3 214.81 6.3 213.38 8.3 210.91 9.2 208.43 10.1 205.33 10.1L205.33 10.1Q202.83 10.1 201.03 9.55 199.23 9 198.58 8.65L198.58 8.65Q197.08 7.8 197.08 6.5L197.08 6.5Q197.08 5.8 197.41 5.33 197.73 4.85 198.23 4.6L198.23 4.6Q199.28 5.4 201.21 6.08 203.13 6.75 205.33 6.75L205.33 6.75Q208.68 6.75 210.46 5.3 212.23 3.85 212.23 0.75ZM247.83-22.85L247.83-22.85Q248.23-23.05 248.83-23.2 249.43-23.35 250.08-23.35L250.08-23.35Q251.08-23.35 251.75-23.03 252.43-22.7 252.63-22.05L252.63-22.05Q253.88-18.45 254.9-15.38 255.93-12.3 256.85-9.43 257.78-6.55 258.73-3.5L258.73-3.5 258.93-3.5Q259.88-8 260.78-12.28 261.68-16.55 262.53-20.95 263.38-25.35 264.08-30.35L264.08-30.35Q264.78-30.7 265.78-30.7L265.78-30.7Q266.73-30.7 267.28-30.28 267.83-29.85 267.83-29L267.83-29Q267.83-28.05 267.55-26.13 267.28-24.2 266.8-21.63 266.33-19.05 265.7-16.18 265.08-13.3 264.38-10.43 263.68-7.55 262.98-5 262.28-2.45 261.63-0.55L261.63-0.55Q261.18-0.3 260.48-0.08 259.78 0.15 258.88 0.15L258.88 0.15Q257.78 0.15 257.03-0.2 256.28-0.55 256.03-1.15L256.03-1.15Q255.33-2.9 254.33-5.78 253.33-8.65 252.25-12.08 251.18-15.5 250.18-18.85L250.18-18.85Q249.23-15.55 248.13-12 247.03-8.45 246-5.4 244.98-2.35 244.18-0.5L244.18-0.5Q243.83-0.3 243.1-0.08 242.38 0.15 241.48 0.15L241.48 0.15Q240.38 0.15 239.65-0.23 238.93-0.6 238.68-1.15L238.68-1.15Q238.18-2.4 237.45-4.9 236.73-7.4 235.93-10.63 235.13-13.85 234.35-17.32 233.58-20.8 232.9-24.03 232.23-27.25 231.83-29.75L231.83-29.75Q232.18-30.1 232.78-30.4 233.38-30.7 234.08-30.7L234.08-30.7Q234.98-30.7 235.48-30.28 235.98-29.85 236.18-28.85L236.18-28.85Q236.83-25.7 237.43-22.75 238.03-19.8 238.65-16.8 239.28-13.8 239.98-10.53 240.68-7.25 241.53-3.5L241.53-3.5 241.73-3.5Q242.43-5.75 243.08-7.8 243.73-9.85 244.43-12.03 245.13-14.2 245.95-16.8 246.78-19.4 247.83-22.85ZM292.02-11.35L275.22-9 275.02-12.15 290.12-14.2Q289.92-16.95 288.22-18.73 286.52-20.5 283.52-20.5L283.52-20.5Q280.42-20.5 278.4-18.28 276.37-16.05 276.37-11.9L276.37-11.9 276.37-10.8Q276.72-6.8 279-4.73 281.27-2.65 285.22-2.65L285.22-2.65Q287.32-2.65 289.02-3.35 290.72-4.05 291.72-4.85L291.72-4.85Q292.27-4.5 292.6-4.03 292.92-3.55 292.92-2.95L292.92-2.95Q292.92-2 291.85-1.18 290.77-0.35 289 0.15 287.22 0.65 285.02 0.65L285.02 0.65Q281.17 0.65 278.35-0.75 275.52-2.15 274-4.93 272.47-7.7 272.47-11.7L272.47-11.7Q272.47-14.55 273.3-16.78 274.12-19 275.6-20.55 277.07-22.1 279.12-22.93 281.17-23.75 283.57-23.75L283.57-23.75Q286.62-23.75 288.95-22.45 291.27-21.15 292.6-18.82 293.92-16.5 293.92-13.5L293.92-13.5Q293.92-12.4 293.42-11.93 292.92-11.45 292.02-11.35L292.02-11.35ZM319.72-15.25L319.72-15.25 319.72-10.15 315.72-10.15 315.72-15.05Q315.72-17.85 314.15-19.15 312.57-20.45 309.92-20.45L309.92-20.45Q307.92-20.45 306.37-19.95 304.82-19.45 303.72-18.8L303.72-18.8 303.72-10.15 299.72-10.15 299.72-18.6Q299.72-19.65 300.15-20.33 300.57-21 301.62-21.65L301.62-21.65Q302.92-22.4 305.07-23.08 307.22-23.75 309.92-23.75L309.92-23.75Q314.47-23.75 317.1-21.68 319.72-19.6 319.72-15.25ZM299.72-1.55L299.72-12.9 303.72-12.9 303.72-0.1Q303.47 0 302.97 0.13 302.47 0.25 301.87 0.25L301.87 0.25Q300.82 0.25 300.27-0.18 299.72-0.6 299.72-1.55L299.72-1.55ZM315.72-1.55L315.72-12.9 319.72-12.9 319.72-0.1Q319.47 0 318.95 0.13 318.42 0.25 317.87 0.25L317.87 0.25Q316.77 0.25 316.25-0.18 315.72-0.6 315.72-1.55L315.72-1.55Z" opacity="1" transform="matrix(1,0,0,1,0,0)" fill="black" class="wordmark-text-0" id="SvgjsPath6258"></path></svg></g></svg></g><g transform="matrix(1,0,0,1,0,40.79069614745519)"><svg viewBox="0 0 244.43135999999998 11.183651304629327" height="11.183651304629327" width="244.43135999999998"><g transform="matrix(1,0,0,1,0,0)"><svg width="244.43135999999998" viewBox="1.5 -32.9 926.7 42.4" height="11.183651304629327" data-palette-color="url(#7fedb7da-ba38-4ec2-8c90-e20475a454f2)"></svg></g></svg></g></svg></g></svg></g></svg></g></svg></g></svg></g><path d="M194.576 91.613L194.576 28.02 3.417 28.02 3.417 219.18 194.576 219.18 194.576 155.587 191.6 155.587 191.6 216.204 6.393 216.204 6.393 30.996 191.6 30.996 191.6 91.613Z" fill="white" stroke="transparent"></path></svg></g><defs><mask></mask></defs><mask><g id="SvgjsG6257"><svg viewBox="0 0 395.52 247.2" height="247.2" width="395.52"><g><svg></svg></g><g><svg viewBox="0 0 395.52 247.2" height="247.2" width="395.52"><g transform="matrix(1,0,0,1,75.54432,97.61282627395774)"><svg viewBox="0 0 244.43135999999998 51.97434745208452" height="51.97434745208452" width="244.43135999999998"><g><svg viewBox="0 0 244.43135999999998 51.97434745208452" height="51.97434745208452" width="244.43135999999998"><g><svg viewBox="0 0 244.43135999999998 51.97434745208452" height="51.97434745208452" width="244.43135999999998"><g><svg viewBox="0 0 244.43135999999998 51.97434745208452" height="51.97434745208452" width="244.43135999999998"><g id="SvgjsG6256"><svg viewBox="0 0 244.43135999999998 51.97434745208452" height="51.97434745208452" width="244.43135999999998" id="SvgjsSvg6255"><g><svg viewBox="0 0 244.43135999999998 33.00015221350078" height="33.00015221350078" width="244.43135999999998"><g transform="matrix(1,0,0,1,0,0)"><svg width="244.43135999999998" viewBox="1.25 -32.9 318.47 43" height="33.00015221350078" data-palette-color="#0b94ff"><path d="M23.35-26.95L13.05-26.95 12.8-30.4 24.45-30.4Q24.6-30.2 24.75-29.75 24.9-29.3 24.9-28.8L24.9-28.8Q24.9-28 24.5-27.48 24.1-26.95 23.35-26.95L23.35-26.95ZM2.8-30.4L13.15-30.4 13.4-26.95 1.7-26.95Q1.55-27.2 1.4-27.65 1.25-28.1 1.25-28.6L1.25-28.6Q1.25-29.45 1.65-29.93 2.05-30.4 2.8-30.4L2.8-30.4ZM11.05-1.6L11.05-28.3 15.1-28.3 15.1-0.1Q14.85 0 14.33 0.13 13.8 0.25 13.25 0.25L13.25 0.25Q12.15 0.25 11.6-0.2 11.05-0.65 11.05-1.6L11.05-1.6ZM46.1-19.2L30.8 0 29.2 0Q28.85-0.3 28.62-0.78 28.4-1.25 28.4-1.75L28.4-1.75Q28.4-2.35 28.67-2.88 28.95-3.4 29.3-3.9L29.3-3.9 44.65-23.1 46.2-23.1Q46.6-22.75 46.82-22.3 47.05-21.85 47.05-21.3L47.05-21.3Q47.05-20.75 46.8-20.25 46.55-19.75 46.1-19.2L46.1-19.2ZM30.2-23.1L45.65-23.1 45.65-19.8 29.15-19.8Q29-20.05 28.85-20.5 28.7-20.95 28.7-21.45L28.7-21.45Q28.7-22.3 29.1-22.7 29.5-23.1 30.2-23.1L30.2-23.1ZM45.85 0L29.5 0 29.5-3.25 46.95-3.25Q47.1-3.05 47.25-2.63 47.4-2.2 47.4-1.65L47.4-1.65Q47.4-0.85 47-0.43 46.6 0 45.85 0L45.85 0ZM53.35-8.45L53.35-8.45 53.35-13 57.35-13 57.35-8.65Q57.35-5.45 59.05-4.05 60.75-2.65 63.75-2.65L63.75-2.65Q65.75-2.65 67.15-3.08 68.55-3.5 69.34-3.95L69.34-3.95 69.34-13 73.34-13 73.34-4.1Q73.34-3.05 73.07-2.43 72.8-1.8 71.75-1.2L71.75-1.2Q70.65-0.55 68.59 0.05 66.55 0.65 63.7 0.65L63.7 0.65Q60.4 0.65 58.07-0.33 55.75-1.3 54.55-3.33 53.35-5.35 53.35-8.45ZM73.34-21.5L73.34-10.4 69.34-10.4 69.34-23Q69.59-23.1 70.12-23.23 70.65-23.35 71.2-23.35L71.2-23.35Q72.3-23.35 72.82-22.93 73.34-22.5 73.34-21.5L73.34-21.5ZM57.35-21.5L57.35-10.4 53.35-10.4 53.35-23Q53.6-23.1 54.12-23.23 54.65-23.35 55.25-23.35L55.25-23.35Q56.3-23.35 56.82-22.93 57.35-22.5 57.35-21.5L57.35-21.5ZM92.09-11.4L92.09-11.4 80.14-11.4Q79.99-11.75 79.89-12.13 79.79-12.5 79.79-13L79.79-13Q79.79-13.85 80.27-14.28 80.74-14.7 81.54-14.7L81.54-14.7 93.49-14.7Q93.59-14.4 93.72-14 93.84-13.6 93.84-13.15L93.84-13.15Q93.84-12.35 93.39-11.88 92.94-11.4 92.09-11.4ZM123.19-27.05L123.19-27.05Q123.19-26.4 122.77-25.88 122.34-25.35 121.79-25.1L121.79-25.1Q120.54-26 118.77-26.8 116.99-27.6 114.19-27.6L114.19-27.6Q111.14-27.6 108.72-26.2 106.29-24.8 104.87-22.03 103.44-19.25 103.44-15.15L103.44-15.15Q103.44-9 106.47-5.9 109.49-2.8 114.34-2.8L114.34-2.8Q116.94-2.8 118.89-3.55 120.84-4.3 122.09-5.25L122.09-5.25Q122.59-5.05 123.04-4.53 123.49-4 123.49-3.3L123.49-3.3Q123.49-2.8 123.22-2.33 122.94-1.85 122.29-1.4L122.29-1.4Q121.14-0.6 119.14 0.03 117.14 0.65 114.04 0.65L114.04 0.65Q109.89 0.65 106.52-1.13 103.14-2.9 101.19-6.4 99.24-9.9 99.24-15.15L99.24-15.15Q99.24-20.4 101.27-23.95 103.29-27.5 106.62-29.28 109.94-31.05 113.89-31.05L113.89-31.05Q116.64-31.05 118.74-30.45 120.84-29.85 122.02-28.93 123.19-28 123.19-27.05ZM149.74-14.65L149.74-9.95 145.74-9.95 145.74-14.55Q145.74-17.55 144.06-19 142.39-20.45 139.74-20.45L139.74-20.45Q137.79-20.45 136.11-19.7 134.44-18.95 133.29-17.9L133.29-17.9 132.54-21.15Q133.74-22 135.71-22.88 137.69-23.75 140.29-23.75L140.29-23.75Q144.44-23.75 147.09-21.5 149.74-19.25 149.74-14.65L149.74-14.65ZM129.79-1.55L129.79-13.2 133.79-13.2 133.79-0.1Q133.54 0 133.04 0.13 132.54 0.25 131.94 0.25L131.94 0.25Q130.89 0.25 130.34-0.18 129.79-0.6 129.79-1.55L129.79-1.55ZM145.74-1.55L145.74-13.15 149.74-13.1 149.74-0.1Q149.49 0 148.96 0.13 148.44 0.25 147.89 0.25L147.89 0.25Q146.79 0.25 146.26-0.18 145.74-0.6 145.74-1.55L145.74-1.55ZM133.79-30.95L133.79-11.25 129.79-11.25 129.79-32.4Q130.04-32.5 130.56-32.63 131.09-32.75 131.69-32.75L131.69-32.75Q132.74-32.75 133.26-32.33 133.79-31.9 133.79-30.95L133.79-30.95ZM156.89-30.4L156.89-30.4Q156.89-31.45 157.64-32.18 158.39-32.9 159.49-32.9L159.49-32.9Q160.64-32.9 161.34-32.18 162.04-31.45 162.04-30.4L162.04-30.4Q162.04-29.35 161.34-28.63 160.64-27.9 159.49-27.9L159.49-27.9Q158.39-27.9 157.64-28.63 156.89-29.35 156.89-30.4ZM157.49-1.55L157.49-13.2 161.49-13.2 161.49-0.1Q161.24 0 160.74 0.13 160.24 0.25 159.64 0.25L159.64 0.25Q158.59 0.25 158.04-0.18 157.49-0.6 157.49-1.55L157.49-1.55ZM161.49-21.5L161.49-11.25 157.49-11.25 157.49-23Q157.74-23.1 158.26-23.23 158.79-23.35 159.39-23.35L159.39-23.35Q160.44-23.35 160.96-22.93 161.49-22.5 161.49-21.5L161.49-21.5ZM189.28-15.25L189.28-15.25 189.28-10.15 185.28-10.15 185.28-15.05Q185.28-17.85 183.71-19.15 182.13-20.45 179.48-20.45L179.48-20.45Q177.48-20.45 175.93-19.95 174.38-19.45 173.28-18.8L173.28-18.8 173.28-10.15 169.28-10.15 169.28-18.6Q169.28-19.65 169.71-20.33 170.13-21 171.18-21.65L171.18-21.65Q172.48-22.4 174.63-23.08 176.78-23.75 179.48-23.75L179.48-23.75Q184.03-23.75 186.66-21.68 189.28-19.6 189.28-15.25ZM169.28-1.55L169.28-12.9 173.28-12.9 173.28-0.1Q173.03 0 172.53 0.13 172.03 0.25 171.43 0.25L171.43 0.25Q170.38 0.25 169.83-0.18 169.28-0.6 169.28-1.55L169.28-1.55ZM185.28-1.55L185.28-12.9 189.28-12.9 189.28-0.1Q189.03 0 188.51 0.13 187.98 0.25 187.43 0.25L187.43 0.25Q186.33 0.25 185.81-0.18 185.28-0.6 185.28-1.55L185.28-1.55ZM206.38-0.7L206.38-0.7Q203.48-0.7 201.03-1.83 198.58-2.95 197.08-5.5 195.58-8.05 195.58-12.25L195.58-12.25Q195.58-16.05 197.06-18.6 198.53-21.15 201.13-22.45 203.73-23.75 207.08-23.75L207.08-23.75Q209.38-23.75 211.31-23.18 213.23-22.6 214.53-21.75L214.53-21.75Q215.28-21.25 215.76-20.63 216.23-20 216.23-19.1L216.23-19.1 216.23-3.65 212.23-3.65 212.23-19.05Q211.38-19.6 210.11-20.03 208.83-20.45 207.08-20.45L207.08-20.45Q203.73-20.45 201.68-18.4 199.63-16.35 199.63-12.3L199.63-12.3Q199.63-7.8 201.71-5.9 203.78-4 206.83-4L206.83-4Q209.03-4 210.38-4.75 211.73-5.5 212.53-6.4L212.53-6.4 212.73-2.85Q211.98-2.05 210.36-1.38 208.73-0.7 206.38-0.7ZM212.23 0.75L212.23 0.75 212.23-4.5 216.23-4.5 216.23 1Q216.23 4.3 214.81 6.3 213.38 8.3 210.91 9.2 208.43 10.1 205.33 10.1L205.33 10.1Q202.83 10.1 201.03 9.55 199.23 9 198.58 8.65L198.58 8.65Q197.08 7.8 197.08 6.5L197.08 6.5Q197.08 5.8 197.41 5.33 197.73 4.85 198.23 4.6L198.23 4.6Q199.28 5.4 201.21 6.08 203.13 6.75 205.33 6.75L205.33 6.75Q208.68 6.75 210.46 5.3 212.23 3.85 212.23 0.75ZM247.83-22.85L247.83-22.85Q248.23-23.05 248.83-23.2 249.43-23.35 250.08-23.35L250.08-23.35Q251.08-23.35 251.75-23.03 252.43-22.7 252.63-22.05L252.63-22.05Q253.88-18.45 254.9-15.38 255.93-12.3 256.85-9.43 257.78-6.55 258.73-3.5L258.73-3.5 258.93-3.5Q259.88-8 260.78-12.28 261.68-16.55 262.53-20.95 263.38-25.35 264.08-30.35L264.08-30.35Q264.78-30.7 265.78-30.7L265.78-30.7Q266.73-30.7 267.28-30.28 267.83-29.85 267.83-29L267.83-29Q267.83-28.05 267.55-26.13 267.28-24.2 266.8-21.63 266.33-19.05 265.7-16.18 265.08-13.3 264.38-10.43 263.68-7.55 262.98-5 262.28-2.45 261.63-0.55L261.63-0.55Q261.18-0.3 260.48-0.08 259.78 0.15 258.88 0.15L258.88 0.15Q257.78 0.15 257.03-0.2 256.28-0.55 256.03-1.15L256.03-1.15Q255.33-2.9 254.33-5.78 253.33-8.65 252.25-12.08 251.18-15.5 250.18-18.85L250.18-18.85Q249.23-15.55 248.13-12 247.03-8.45 246-5.4 244.98-2.35 244.18-0.5L244.18-0.5Q243.83-0.3 243.1-0.08 242.38 0.15 241.48 0.15L241.48 0.15Q240.38 0.15 239.65-0.23 238.93-0.6 238.68-1.15L238.68-1.15Q238.18-2.4 237.45-4.9 236.73-7.4 235.93-10.63 235.13-13.85 234.35-17.32 233.58-20.8 232.9-24.03 232.23-27.25 231.83-29.75L231.83-29.75Q232.18-30.1 232.78-30.4 233.38-30.7 234.08-30.7L234.08-30.7Q234.98-30.7 235.48-30.28 235.98-29.85 236.18-28.85L236.18-28.85Q236.83-25.7 237.43-22.75 238.03-19.8 238.65-16.8 239.28-13.8 239.98-10.53 240.68-7.25 241.53-3.5L241.53-3.5 241.73-3.5Q242.43-5.75 243.08-7.8 243.73-9.85 244.43-12.03 245.13-14.2 245.95-16.8 246.78-19.4 247.83-22.85ZM292.02-11.35L275.22-9 275.02-12.15 290.12-14.2Q289.92-16.95 288.22-18.73 286.52-20.5 283.52-20.5L283.52-20.5Q280.42-20.5 278.4-18.28 276.37-16.05 276.37-11.9L276.37-11.9 276.37-10.8Q276.72-6.8 279-4.73 281.27-2.65 285.22-2.65L285.22-2.65Q287.32-2.65 289.02-3.35 290.72-4.05 291.72-4.85L291.72-4.85Q292.27-4.5 292.6-4.03 292.92-3.55 292.92-2.95L292.92-2.95Q292.92-2 291.85-1.18 290.77-0.35 289 0.15 287.22 0.65 285.02 0.65L285.02 0.65Q281.17 0.65 278.35-0.75 275.52-2.15 274-4.93 272.47-7.7 272.47-11.7L272.47-11.7Q272.47-14.55 273.3-16.78 274.12-19 275.6-20.55 277.07-22.1 279.12-22.93 281.17-23.75 283.57-23.75L283.57-23.75Q286.62-23.75 288.95-22.45 291.27-21.15 292.6-18.82 293.92-16.5 293.92-13.5L293.92-13.5Q293.92-12.4 293.42-11.93 292.92-11.45 292.02-11.35L292.02-11.35ZM319.72-15.25L319.72-15.25 319.72-10.15 315.72-10.15 315.72-15.05Q315.72-17.85 314.15-19.15 312.57-20.45 309.92-20.45L309.92-20.45Q307.92-20.45 306.37-19.95 304.82-19.45 303.72-18.8L303.72-18.8 303.72-10.15 299.72-10.15 299.72-18.6Q299.72-19.65 300.15-20.33 300.57-21 301.62-21.65L301.62-21.65Q302.92-22.4 305.07-23.08 307.22-23.75 309.92-23.75L309.92-23.75Q314.47-23.75 317.1-21.68 319.72-19.6 319.72-15.25ZM299.72-1.55L299.72-12.9 303.72-12.9 303.72-0.1Q303.47 0 302.97 0.13 302.47 0.25 301.87 0.25L301.87 0.25Q300.82 0.25 300.27-0.18 299.72-0.6 299.72-1.55L299.72-1.55ZM315.72-1.55L315.72-12.9 319.72-12.9 319.72-0.1Q319.47 0 318.95 0.13 318.42 0.25 317.87 0.25L317.87 0.25Q316.77 0.25 316.25-0.18 315.72-0.6 315.72-1.55L315.72-1.55Z" opacity="1" transform="matrix(1,0,0,1,0,0)" fill="black" class="wordmark-text-0" id="SvgjsPath6254"></path></svg></g></svg></g><g transform="matrix(1,0,0,1,0,40.79069614745519)"><svg viewBox="0 0 244.43135999999998 11.183651304629327" height="11.183651304629327" width="244.43135999999998"><g transform="matrix(1,0,0,1,0,0)"><svg width="244.43135999999998" viewBox="1.5 -32.9 926.7 42.4" height="11.183651304629327" data-palette-color="url(#7fedb7da-ba38-4ec2-8c90-e20475a454f2)"><path d="M14.9-27.25L14.9-27.25 14.7-27.25Q13.95-25.15 12.93-22.25 11.9-19.35 10.83-16.28 9.75-13.2 8.8-10.55L8.8-10.55 8.55-9.8Q8.25-8.9 7.8-7.55 7.35-6.2 6.85-4.73 6.35-3.25 5.9-1.98 5.45-0.7 5.2 0.1L5.2 0.1Q4.85 0.25 4.48 0.33 4.1 0.4 3.55 0.4L3.55 0.4Q2.75 0.4 2.13-0.03 1.5-0.45 1.5-1.4L1.5-1.4Q1.5-1.85 1.65-2.33 1.8-2.8 2-3.35L2-3.35Q2.6-5.05 3.48-7.5 4.35-9.95 5.4-12.85 6.45-15.75 7.6-18.8 8.75-21.85 9.85-24.75 10.95-27.65 11.9-30.05L11.9-30.05Q12.3-30.25 13.1-30.45 13.9-30.65 14.75-30.65L14.75-30.65Q15.75-30.65 16.68-30.35 17.6-30.05 17.85-29.35L17.85-29.35Q19.05-26.45 20.43-22.78 21.8-19.1 23.2-15.13 24.6-11.15 25.88-7.4 27.15-3.65 28.15-0.6L28.15-0.6Q27.8-0.15 27.23 0.13 26.65 0.4 25.95 0.4L25.95 0.4Q25 0.4 24.5-0.03 24-0.45 23.65-1.45L23.65-1.45 20.9-9.6 20.5-11Q19.5-14.05 18.43-17.15 17.35-20.25 16.43-22.9 15.5-25.55 14.9-27.25ZM22.65-8.1L6.6-8.1 7.9-11.45 21.85-11.45 22.65-8.1ZM33.35-8.45L33.35-8.45 33.35-13 37.35-13 37.35-8.65Q37.35-5.45 39.05-4.05 40.75-2.65 43.75-2.65L43.75-2.65Q45.75-2.65 47.15-3.08 48.55-3.5 49.35-3.95L49.35-3.95 49.35-13 53.35-13 53.35-4.1Q53.35-3.05 53.08-2.43 52.8-1.8 51.75-1.2L51.75-1.2Q50.65-0.55 48.6 0.05 46.55 0.65 43.7 0.65L43.7 0.65Q40.4 0.65 38.08-0.33 35.75-1.3 34.55-3.33 33.35-5.35 33.35-8.45ZM53.35-21.5L53.35-10.4 49.35-10.4 49.35-23Q49.6-23.1 50.13-23.23 50.65-23.35 51.2-23.35L51.2-23.35Q52.3-23.35 52.83-22.93 53.35-22.5 53.35-21.5L53.35-21.5ZM37.35-21.5L37.35-10.4 33.35-10.4 33.35-23Q33.6-23.1 34.13-23.23 34.65-23.35 35.25-23.35L35.25-23.35Q36.3-23.35 36.83-22.93 37.35-22.5 37.35-21.5L37.35-21.5ZM60.9-6.05L60.9-13.2 64.9-13.2 64.9-6.3Q64.9-4.3 66.05-3.48 67.2-2.65 69.2-2.65L69.2-2.65Q70.05-2.65 71.1-2.95 72.15-3.25 72.85-3.65L72.85-3.65Q73.15-3.35 73.4-2.9 73.65-2.45 73.65-1.85L73.65-1.85Q73.65-0.75 72.35-0.05 71.05 0.65 68.75 0.65L68.75 0.65Q65.25 0.65 63.08-0.9 60.9-2.45 60.9-6.05L60.9-6.05ZM72.05-19.3L62.95-19.3 62.95-22.6 73.1-22.6Q73.25-22.4 73.4-21.95 73.55-21.5 73.55-21L73.55-21Q73.55-20.2 73.15-19.75 72.75-19.3 72.05-19.3L72.05-19.3ZM64.9-28.35L64.9-11.7 60.9-11.7 60.9-29.8Q61.15-29.9 61.68-30.03 62.2-30.15 62.8-30.15L62.8-30.15Q63.85-30.15 64.38-29.73 64.9-29.3 64.9-28.35L64.9-28.35ZM100.9-11.55L100.9-11.55Q100.9-7.85 99.5-5.1 98.1-2.35 95.55-0.85 93 0.65 89.55 0.65L89.55 0.65Q86.1 0.65 83.53-0.85 80.95-2.35 79.55-5.1 78.15-7.85 78.15-11.55L78.15-11.55Q78.15-15.3 79.58-18.03 81-20.75 83.58-22.25 86.15-23.75 89.55-23.75L89.55-23.75Q92.95-23.75 95.5-22.25 98.05-20.75 99.48-18.03 100.9-15.3 100.9-11.55ZM89.55-20.45L89.55-20.45Q86.2-20.45 84.23-18.07 82.25-15.7 82.25-11.55L82.25-11.55Q82.25-7.35 84.18-5 86.1-2.65 89.55-2.65L89.55-2.65Q92.95-2.65 94.88-5.03 96.8-7.4 96.8-11.55L96.8-11.55Q96.8-15.7 94.88-18.07 92.95-20.45 89.55-20.45ZM125.75-16L125.75-16 125.75-10.25 121.75-10.25 121.75-15.7Q121.75-18.15 120.33-19.3 118.9-20.45 116.55-20.45L116.55-20.45Q115-20.45 113.55-19.95 112.1-19.45 111.1-18.8L111.1-18.8 111.1-10.25 107.1-10.25 107.1-18.6Q107.1-19.6 107.53-20.3 107.95-21 109-21.65L109-21.65Q110.35-22.5 112.43-23.13 114.5-23.75 116.6-23.75L116.6-23.75Q119.15-23.75 121.1-22.98 123.05-22.2 124-20.85L124-20.85Q124.3-20.55 124.5-20.3 124.7-20.05 124.9-19.65L124.9-19.65Q125.25-19.05 125.5-18.1 125.75-17.15 125.75-16ZM140.4-15.9L140.4-15.9 140.4-10.25 136.4-10.25 136.4-15.7Q136.4-18.15 135-19.3 133.6-20.45 131.25-20.45L131.25-20.45Q129.5-20.45 127.88-19.73 126.25-19 124.95-17.65L124.95-17.65 123.35-20.55Q124.65-21.85 126.75-22.8 128.85-23.75 131.55-23.75L131.55-23.75Q134.25-23.75 136.23-22.9 138.2-22.05 139.3-20.3 140.4-18.55 140.4-15.9ZM107.1-1.55L107.1-12.9 111.1-12.9 111.1-0.1Q110.85 0 110.35 0.13 109.85 0.25 109.25 0.25L109.25 0.25Q108.2 0.25 107.65-0.18 107.1-0.6 107.1-1.55L107.1-1.55ZM121.75-1.55L121.75-12.9 125.75-12.9 125.75-0.1Q125.5 0 124.98 0.13 124.45 0.25 123.9 0.25L123.9 0.25Q122.8 0.25 122.28-0.18 121.75-0.6 121.75-1.55L121.75-1.55ZM136.4-1.55L136.4-12.9 140.4-12.9 140.4-0.1Q140.15 0 139.63 0.13 139.1 0.25 138.55 0.25L138.55 0.25Q137.45 0.25 136.93-0.18 136.4-0.6 136.4-1.55L136.4-1.55ZM156.15 0.7L156.15 0.7Q151.45 0.7 148.88-1.15 146.3-3 146.3-6.5L146.3-6.5Q146.3-9.75 148.48-11.48 150.65-13.2 154.5-13.55L154.5-13.55 161.6-14.25 161.6-15.65Q161.6-18.15 160.1-19.3 158.6-20.45 156.05-20.45L156.05-20.45Q154-20.45 152.13-19.85 150.25-19.25 148.8-18.5L148.8-18.5Q148.4-18.85 148.08-19.33 147.75-19.8 147.75-20.3L147.75-20.3Q147.75-21.6 149.2-22.3L149.2-22.3Q150.55-23 152.33-23.38 154.1-23.75 156.1-23.75L156.1-23.75Q160.45-23.75 163-21.8 165.55-19.85 165.55-15.65L165.55-15.65 165.55-3.8Q165.55-2.7 165.13-2.13 164.7-1.55 163.85-1.05L163.85-1.05Q162.65-0.4 160.65 0.15 158.65 0.7 156.15 0.7ZM156.15-2.6L156.15-2.6Q158.25-2.6 159.63-3.03 161-3.45 161.6-3.85L161.6-3.85 161.6-11.1 155.4-10.45Q152.8-10.25 151.55-9.3 150.3-8.35 150.3-6.55L150.3-6.55Q150.3-4.7 151.78-3.65 153.25-2.6 156.15-2.6ZM172.9-6.05L172.9-13.2 176.9-13.2 176.9-6.3Q176.9-4.3 178.05-3.48 179.2-2.65 181.2-2.65L181.2-2.65Q182.05-2.65 183.1-2.95 184.15-3.25 184.85-3.65L184.85-3.65Q185.15-3.35 185.4-2.9 185.65-2.45 185.65-1.85L185.65-1.85Q185.65-0.75 184.35-0.05 183.05 0.65 180.75 0.65L180.75 0.65Q177.25 0.65 175.08-0.9 172.9-2.45 172.9-6.05L172.9-6.05ZM184.05-19.3L174.95-19.3 174.95-22.6 185.1-22.6Q185.25-22.4 185.4-21.95 185.55-21.5 185.55-21L185.55-21Q185.55-20.2 185.15-19.75 184.75-19.3 184.05-19.3L184.05-19.3ZM176.9-28.35L176.9-11.7 172.9-11.7 172.9-29.8Q173.15-29.9 173.68-30.03 174.2-30.15 174.8-30.15L174.8-30.15Q175.85-30.15 176.38-29.73 176.9-29.3 176.9-28.35L176.9-28.35ZM209.7-11.35L192.9-9 192.7-12.15 207.8-14.2Q207.6-16.95 205.9-18.73 204.2-20.5 201.2-20.5L201.2-20.5Q198.1-20.5 196.08-18.28 194.05-16.05 194.05-11.9L194.05-11.9 194.05-10.8Q194.4-6.8 196.68-4.73 198.95-2.65 202.9-2.65L202.9-2.65Q205-2.65 206.7-3.35 208.4-4.05 209.4-4.85L209.4-4.85Q209.95-4.5 210.28-4.03 210.6-3.55 210.6-2.95L210.6-2.95Q210.6-2 209.53-1.18 208.45-0.35 206.68 0.15 204.9 0.65 202.7 0.65L202.7 0.65Q198.85 0.65 196.03-0.75 193.2-2.15 191.68-4.93 190.15-7.7 190.15-11.7L190.15-11.7Q190.15-14.55 190.98-16.78 191.8-19 193.28-20.55 194.75-22.1 196.8-22.93 198.85-23.75 201.25-23.75L201.25-23.75Q204.3-23.75 206.63-22.45 208.95-21.15 210.28-18.82 211.6-16.5 211.6-13.5L211.6-13.5Q211.6-12.4 211.1-11.93 210.6-11.45 209.7-11.35L209.7-11.35ZM236.5-2.75L236.5-2.75Q239.85-2.75 241.58-4.28 243.3-5.8 243.3-8.2L243.3-8.2Q243.3-10.25 241.98-11.6 240.65-12.95 237.8-13.75L237.8-13.75 233.45-15.05Q231.35-15.7 229.8-16.73 228.25-17.75 227.43-19.28 226.6-20.8 226.6-22.85L226.6-22.85Q226.6-26.7 229.4-28.88 232.2-31.05 236.85-31.05L236.85-31.05Q239.55-31.05 241.68-30.48 243.8-29.9 245.03-29 246.25-28.1 246.25-27.1L246.25-27.1Q246.25-26.45 245.9-25.93 245.55-25.4 245-25.1L245-25.1Q243.75-26.1 241.63-26.85 239.5-27.6 237-27.6L237-27.6Q234.1-27.6 232.4-26.33 230.7-25.05 230.7-22.85L230.7-22.85Q230.7-21.1 231.93-20 233.15-18.9 235.9-18.1L235.9-18.1 238.95-17.2Q242.9-16.1 245.18-14 247.45-11.9 247.45-8.2L247.45-8.2Q247.45-4.25 244.58-1.8 241.7 0.65 236.5 0.65L236.5 0.65Q233.45 0.65 231.18-0.03 228.9-0.7 227.63-1.73 226.35-2.75 226.35-3.75L226.35-3.75Q226.35-4.6 226.88-5.18 227.4-5.75 228.1-6L228.1-6Q229.25-4.9 231.35-3.83 233.45-2.75 236.5-2.75ZM253.55-8.45L253.55-8.45 253.55-13 257.55-13 257.55-8.65Q257.55-5.45 259.25-4.05 260.95-2.65 263.95-2.65L263.95-2.65Q265.95-2.65 267.35-3.08 268.75-3.5 269.55-3.95L269.55-3.95 269.55-13 273.55-13 273.55-4.1Q273.55-3.05 273.28-2.43 273-1.8 271.95-1.2L271.95-1.2Q270.85-0.55 268.8 0.05 266.75 0.65 263.9 0.65L263.9 0.65Q260.6 0.65 258.28-0.33 255.95-1.3 254.75-3.33 253.55-5.35 253.55-8.45ZM273.55-21.5L273.55-10.4 269.55-10.4 269.55-23Q269.8-23.1 270.33-23.23 270.85-23.35 271.4-23.35L271.4-23.35Q272.5-23.35 273.03-22.93 273.55-22.5 273.55-21.5L273.55-21.5ZM257.55-21.5L257.55-10.4 253.55-10.4 253.55-23Q253.8-23.1 254.33-23.23 254.85-23.35 255.45-23.35L255.45-23.35Q256.5-23.35 257.03-22.93 257.55-22.5 257.55-21.5L257.55-21.5ZM297.35-6.15L297.35-6.15Q297.35-2.95 295-1.15 292.65 0.65 288.2 0.65L288.2 0.65Q284.4 0.65 282-0.53 279.6-1.7 279.6-3.1L279.6-3.1Q279.6-3.7 279.93-4.28 280.25-4.85 280.9-5.2L280.9-5.2Q282.25-4.25 284.05-3.45 285.85-2.65 288.15-2.65L288.15-2.65Q293.35-2.65 293.35-6.15L293.35-6.15Q293.35-7.6 292.48-8.53 291.6-9.45 289.9-9.85L289.9-9.85 285.75-10.95Q282.7-11.7 281.3-13.28 279.9-14.85 279.9-17.2L279.9-17.2Q279.9-19.85 282.05-21.8 284.2-23.75 288.6-23.75L288.6-23.75Q290.95-23.75 292.7-23.28 294.45-22.8 295.43-22.03 296.4-21.25 296.4-20.35L296.4-20.35Q296.4-19.7 296.08-19.2 295.75-18.7 295.2-18.45L295.2-18.45Q294.6-18.85 293.68-19.33 292.75-19.8 291.5-20.13 290.25-20.45 288.75-20.45L288.75-20.45Q286.55-20.45 285.2-19.6 283.85-18.75 283.85-17.2L283.85-17.2Q283.85-16.1 284.63-15.28 285.4-14.45 287.1-14.05L287.1-14.05 290.55-13.2Q293.95-12.4 295.65-10.68 297.35-8.95 297.35-6.15ZM303.45-6.05L303.45-13.2 307.45-13.2 307.45-6.3Q307.45-4.3 308.6-3.48 309.75-2.65 311.75-2.65L311.75-2.65Q312.6-2.65 313.65-2.95 314.7-3.25 315.4-3.65L315.4-3.65Q315.7-3.35 315.95-2.9 316.2-2.45 316.2-1.85L316.2-1.85Q316.2-0.75 314.9-0.05 313.6 0.65 311.3 0.65L311.3 0.65Q307.8 0.65 305.63-0.9 303.45-2.45 303.45-6.05L303.45-6.05ZM314.6-19.3L305.5-19.3 305.5-22.6 315.65-22.6Q315.8-22.4 315.95-21.95 316.1-21.5 316.1-21L316.1-21Q316.1-20.2 315.7-19.75 315.3-19.3 314.6-19.3L314.6-19.3ZM307.45-28.35L307.45-11.7 303.45-11.7 303.45-29.8Q303.7-29.9 304.23-30.03 304.75-30.15 305.35-30.15L305.35-30.15Q306.4-30.15 306.93-29.73 307.45-29.3 307.45-28.35L307.45-28.35ZM330.25 0.7L330.25 0.7Q325.55 0.7 322.98-1.15 320.4-3 320.4-6.5L320.4-6.5Q320.4-9.75 322.58-11.48 324.75-13.2 328.6-13.55L328.6-13.55 335.7-14.25 335.7-15.65Q335.7-18.15 334.2-19.3 332.7-20.45 330.15-20.45L330.15-20.45Q328.1-20.45 326.23-19.85 324.35-19.25 322.9-18.5L322.9-18.5Q322.5-18.85 322.18-19.33 321.85-19.8 321.85-20.3L321.85-20.3Q321.85-21.6 323.3-22.3L323.3-22.3Q324.65-23 326.43-23.38 328.2-23.75 330.2-23.75L330.2-23.75Q334.55-23.75 337.1-21.8 339.65-19.85 339.65-15.65L339.65-15.65 339.65-3.8Q339.65-2.7 339.23-2.13 338.8-1.55 337.95-1.05L337.95-1.05Q336.75-0.4 334.75 0.15 332.75 0.7 330.25 0.7ZM330.25-2.6L330.25-2.6Q332.35-2.6 333.73-3.03 335.1-3.45 335.7-3.85L335.7-3.85 335.7-11.1 329.5-10.45Q326.9-10.25 325.65-9.3 324.4-8.35 324.4-6.55L324.4-6.55Q324.4-4.7 325.88-3.65 327.35-2.6 330.25-2.6ZM346.6-30.4L346.6-30.4Q346.6-31.45 347.35-32.18 348.1-32.9 349.2-32.9L349.2-32.9Q350.35-32.9 351.05-32.18 351.75-31.45 351.75-30.4L351.75-30.4Q351.75-29.35 351.05-28.63 350.35-27.9 349.2-27.9L349.2-27.9Q348.1-27.9 347.35-28.63 346.6-29.35 346.6-30.4ZM347.2-1.55L347.2-13.2 351.2-13.2 351.2-0.1Q350.95 0 350.45 0.13 349.95 0.25 349.35 0.25L349.35 0.25Q348.3 0.25 347.75-0.18 347.2-0.6 347.2-1.55L347.2-1.55ZM351.2-21.5L351.2-11.25 347.2-11.25 347.2-23Q347.45-23.1 347.98-23.23 348.5-23.35 349.1-23.35L349.1-23.35Q350.15-23.35 350.68-22.93 351.2-22.5 351.2-21.5L351.2-21.5ZM379-15.25L379-15.25 379-10.15 375-10.15 375-15.05Q375-17.85 373.43-19.15 371.85-20.45 369.2-20.45L369.2-20.45Q367.2-20.45 365.65-19.95 364.1-19.45 363-18.8L363-18.8 363-10.15 359-10.15 359-18.6Q359-19.65 359.43-20.33 359.85-21 360.9-21.65L360.9-21.65Q362.2-22.4 364.35-23.08 366.5-23.75 369.2-23.75L369.2-23.75Q373.75-23.75 376.38-21.68 379-19.6 379-15.25ZM359-1.55L359-12.9 363-12.9 363-0.1Q362.75 0 362.25 0.13 361.75 0.25 361.15 0.25L361.15 0.25Q360.1 0.25 359.55-0.18 359-0.6 359-1.55L359-1.55ZM375-1.55L375-12.9 379-12.9 379-0.1Q378.75 0 378.23 0.13 377.7 0.25 377.15 0.25L377.15 0.25Q376.05 0.25 375.53-0.18 375-0.6 375-1.55L375-1.55ZM394.75 0.7L394.75 0.7Q390.05 0.7 387.48-1.15 384.9-3 384.9-6.5L384.9-6.5Q384.9-9.75 387.08-11.48 389.25-13.2 393.1-13.55L393.1-13.55 400.2-14.25 400.2-15.65Q400.2-18.15 398.7-19.3 397.2-20.45 394.65-20.45L394.65-20.45Q392.6-20.45 390.73-19.85 388.85-19.25 387.4-18.5L387.4-18.5Q387-18.85 386.68-19.33 386.35-19.8 386.35-20.3L386.35-20.3Q386.35-21.6 387.8-22.3L387.8-22.3Q389.15-23 390.93-23.38 392.7-23.75 394.7-23.75L394.7-23.75Q399.05-23.75 401.6-21.8 404.15-19.85 404.15-15.65L404.15-15.65 404.15-3.8Q404.15-2.7 403.73-2.13 403.3-1.55 402.45-1.05L402.45-1.05Q401.25-0.4 399.25 0.15 397.25 0.7 394.75 0.7ZM394.75-2.6L394.75-2.6Q396.85-2.6 398.23-3.03 399.6-3.45 400.2-3.85L400.2-3.85 400.2-11.1 394-10.45Q391.4-10.25 390.15-9.3 388.9-8.35 388.9-6.55L388.9-6.55Q388.9-4.7 390.38-3.65 391.85-2.6 394.75-2.6ZM421.75-23.75L421.75-23.75Q424.85-23.75 427.33-22.43 429.8-21.1 431.23-18.4 432.65-15.7 432.65-11.55L432.65-11.55Q432.65-7.35 431.18-4.65 429.7-1.95 427.1-0.65 424.5 0.65 421.05 0.65L421.05 0.65Q418.6 0.65 416.63 0.05 414.65-0.55 413.4-1.25L413.4-1.25Q412.35-1.95 411.95-2.55 411.55-3.15 411.55-4.2L411.55-4.2 411.55-20.85 415.55-20.85 415.55-4.2Q416.3-3.65 417.75-3.15 419.2-2.65 421.05-2.65L421.05-2.65Q424.45-2.65 426.53-4.8 428.6-6.95 428.6-11.55L428.6-11.55Q428.6-16.2 426.5-18.32 424.4-20.45 421.15-20.45L421.15-20.45Q419.15-20.45 417.6-19.68 416.05-18.9 415.05-17.9L415.05-17.9 414.3-21.15Q415.4-22 417.25-22.88 419.1-23.75 421.75-23.75ZM415.55-30.95L415.55-20.05 411.55-20.05 411.55-32.4Q411.8-32.5 412.33-32.63 412.85-32.75 413.45-32.75L413.45-32.75Q414.5-32.75 415.03-32.33 415.55-31.9 415.55-30.95L415.55-30.95ZM439.3-1.55L439.3-13.2 443.3-12.6 443.3-0.1Q443.05 0 442.55 0.13 442.05 0.25 441.45 0.25L441.45 0.25Q440.4 0.25 439.85-0.18 439.3-0.6 439.3-1.55L439.3-1.55ZM443.3-30.95L443.3-10.7 439.3-11.25 439.3-32.4Q439.55-32.5 440.08-32.63 440.6-32.75 441.15-32.75L441.15-32.75Q442.25-32.75 442.78-32.33 443.3-31.9 443.3-30.95L443.3-30.95ZM455.9-5.15L455.9-5.15Q455.05-6.75 453.85-9.47 452.65-12.2 451.38-15.58 450.1-18.95 448.95-22.45L448.95-22.45Q449.3-22.95 449.88-23.25 450.45-23.55 451.1-23.55L451.1-23.55Q451.95-23.55 452.5-23.1 453.05-22.65 453.4-21.6L453.4-21.6Q454.9-17.4 456.55-13.25 458.2-9.1 460.2-4.65L460.2-4.65 460.4-4.65Q461.45-6.75 462.6-9.9 463.75-13.05 464.8-16.55 465.85-20.05 466.55-23.15L466.55-23.15Q466.9-23.3 467.33-23.43 467.75-23.55 468.25-23.55L468.25-23.55Q469.1-23.55 469.65-23.13 470.2-22.7 470.2-21.85L470.2-21.85Q470.2-21.05 469.75-19.18 469.3-17.3 468.53-14.83 467.75-12.35 466.73-9.58 465.7-6.8 464.53-4.13 463.35-1.45 462.15 0.7L462.15 0.7Q459.85 4.95 457.95 7.23 456.05 9.5 454.45 9.5L454.45 9.5Q453.3 9.5 452.68 8.9 452.05 8.3 451.9 7.5L451.9 7.5Q453 6.55 454.38 4.98 455.75 3.4 457.03 1.58 458.3-0.25 459.1-1.9L459.1-1.9Q458.25-2.15 457.53-2.8 456.8-3.45 455.9-5.15ZM475.3 4.7L475.3 4.7Q474.5 6.05 473.35 6.05L473.35 6.05Q472.25 6.05 471.55 5.2L471.55 5.2Q472 3.9 472.58 2.13 473.15 0.35 473.65-1.5 474.15-3.35 474.4-4.7L474.4-4.7Q474.8-4.9 475.28-5.03 475.75-5.15 476.3-5.15L476.3-5.15Q477.2-5.15 477.7-4.73 478.2-4.3 478.2-3.3L478.2-3.3Q478.2-2.2 477.68-0.58 477.15 1.05 476.45 2.53 475.75 4 475.3 4.7ZM493.65-1.6L493.65-18.15 497.7-18.15 497.7-0.1Q497.45 0 496.95 0.13 496.45 0.25 495.85 0.25L495.85 0.25Q494.75 0.25 494.2-0.2 493.65-0.65 493.65-1.6L493.65-1.6ZM497.7-28.8L497.7-14.8 493.65-14.8 493.65-30.3Q493.9-30.4 494.43-30.53 494.95-30.65 495.55-30.65L495.55-30.65Q496.65-30.65 497.18-30.23 497.7-29.8 497.7-28.8L497.7-28.8ZM526-15.25L526-15.25 526-10.15 522-10.15 522-15.05Q522-17.85 520.43-19.15 518.85-20.45 516.2-20.45L516.2-20.45Q514.2-20.45 512.65-19.95 511.1-19.45 510-18.8L510-18.8 510-10.15 506-10.15 506-18.6Q506-19.65 506.43-20.33 506.85-21 507.9-21.65L507.9-21.65Q509.2-22.4 511.35-23.08 513.5-23.75 516.2-23.75L516.2-23.75Q520.75-23.75 523.38-21.68 526-19.6 526-15.25ZM506-1.55L506-12.9 510-12.9 510-0.1Q509.75 0 509.25 0.13 508.75 0.25 508.15 0.25L508.15 0.25Q507.1 0.25 506.55-0.18 506-0.6 506-1.55L506-1.55ZM522-1.55L522-12.9 526-12.9 526-0.1Q525.75 0 525.23 0.13 524.7 0.25 524.15 0.25L524.15 0.25Q523.05 0.25 522.53-0.18 522-0.6 522-1.55L522-1.55ZM553.5-15.25L553.5-15.25 553.5-10.15 549.5-10.15 549.5-15.05Q549.5-17.85 547.93-19.15 546.35-20.45 543.7-20.45L543.7-20.45Q541.7-20.45 540.15-19.95 538.6-19.45 537.5-18.8L537.5-18.8 537.5-10.15 533.5-10.15 533.5-18.6Q533.5-19.65 533.93-20.33 534.35-21 535.4-21.65L535.4-21.65Q536.7-22.4 538.85-23.08 541-23.75 543.7-23.75L543.7-23.75Q548.25-23.75 550.88-21.68 553.5-19.6 553.5-15.25ZM533.5-1.55L533.5-12.9 537.5-12.9 537.5-0.1Q537.25 0 536.75 0.13 536.25 0.25 535.65 0.25L535.65 0.25Q534.6 0.25 534.05-0.18 533.5-0.6 533.5-1.55L533.5-1.55ZM549.5-1.55L549.5-12.9 553.5-12.9 553.5-0.1Q553.25 0 552.73 0.13 552.2 0.25 551.65 0.25L551.65 0.25Q550.55 0.25 550.03-0.18 549.5-0.6 549.5-1.55L549.5-1.55ZM582.45-11.55L582.45-11.55Q582.45-7.85 581.05-5.1 579.65-2.35 577.1-0.85 574.55 0.65 571.1 0.65L571.1 0.65Q567.65 0.65 565.08-0.85 562.5-2.35 561.1-5.1 559.7-7.85 559.7-11.55L559.7-11.55Q559.7-15.3 561.13-18.03 562.55-20.75 565.13-22.25 567.7-23.75 571.1-23.75L571.1-23.75Q574.5-23.75 577.05-22.25 579.6-20.75 581.03-18.03 582.45-15.3 582.45-11.55ZM571.1-20.45L571.1-20.45Q567.75-20.45 565.78-18.07 563.8-15.7 563.8-11.55L563.8-11.55Q563.8-7.35 565.73-5 567.65-2.65 571.1-2.65L571.1-2.65Q574.5-2.65 576.43-5.03 578.35-7.4 578.35-11.55L578.35-11.55Q578.35-15.7 576.43-18.07 574.5-20.45 571.1-20.45ZM605.95-23.55L605.95-23.55Q606.8-23.55 607.33-23.1 607.85-22.65 607.85-21.8L607.85-21.8Q607.85-21.15 607.3-19.35 606.75-17.55 605.85-15.05 604.95-12.55 603.88-9.83 602.8-7.1 601.68-4.58 600.55-2.05 599.6-0.2L599.6-0.2Q599.35 0 598.73 0.15 598.1 0.3 597.4 0.3L597.4 0.3Q596.55 0.3 595.9 0.03 595.25-0.25 595-0.75L595-0.75Q594.45-1.75 593.58-3.68 592.7-5.6 591.7-8.05 590.7-10.5 589.68-13.13 588.65-15.75 587.8-18.18 586.95-20.6 586.4-22.45L586.4-22.45Q586.75-22.95 587.35-23.25 587.95-23.55 588.55-23.55L588.55-23.55Q589.45-23.55 589.95-23.1 590.45-22.65 590.8-21.6L590.8-21.6 593.9-12.65Q594.3-11.5 594.95-9.8 595.6-8.1 596.25-6.4 596.9-4.7 597.3-3.55L597.3-3.55 597.5-3.55Q599.5-8.6 601.25-13.53 603-18.45 604.25-23.15L604.25-23.15Q604.9-23.55 605.95-23.55ZM621.65 0.7L621.65 0.7Q616.95 0.7 614.38-1.15 611.8-3 611.8-6.5L611.8-6.5Q611.8-9.75 613.98-11.48 616.15-13.2 620-13.55L620-13.55 627.1-14.25 627.1-15.65Q627.1-18.15 625.6-19.3 624.1-20.45 621.55-20.45L621.55-20.45Q619.5-20.45 617.63-19.85 615.75-19.25 614.3-18.5L614.3-18.5Q613.9-18.85 613.58-19.33 613.25-19.8 613.25-20.3L613.25-20.3Q613.25-21.6 614.7-22.3L614.7-22.3Q616.05-23 617.83-23.38 619.6-23.75 621.6-23.75L621.6-23.75Q625.95-23.75 628.5-21.8 631.05-19.85 631.05-15.65L631.05-15.65 631.05-3.8Q631.05-2.7 630.63-2.13 630.2-1.55 629.35-1.05L629.35-1.05Q628.15-0.4 626.15 0.15 624.15 0.7 621.65 0.7ZM621.65-2.6L621.65-2.6Q623.75-2.6 625.13-3.03 626.5-3.45 627.1-3.85L627.1-3.85 627.1-11.1 620.9-10.45Q618.3-10.25 617.05-9.3 615.8-8.35 615.8-6.55L615.8-6.55Q615.8-4.7 617.28-3.65 618.75-2.6 621.65-2.6ZM638.4-6.05L638.4-13.2 642.4-13.2 642.4-6.3Q642.4-4.3 643.55-3.48 644.7-2.65 646.7-2.65L646.7-2.65Q647.55-2.65 648.6-2.95 649.65-3.25 650.35-3.65L650.35-3.65Q650.65-3.35 650.9-2.9 651.15-2.45 651.15-1.85L651.15-1.85Q651.15-0.75 649.85-0.05 648.55 0.65 646.25 0.65L646.25 0.65Q642.75 0.65 640.58-0.9 638.4-2.45 638.4-6.05L638.4-6.05ZM649.55-19.3L640.45-19.3 640.45-22.6 650.6-22.6Q650.75-22.4 650.9-21.95 651.05-21.5 651.05-21L651.05-21Q651.05-20.2 650.65-19.75 650.25-19.3 649.55-19.3L649.55-19.3ZM642.4-28.35L642.4-11.7 638.4-11.7 638.4-29.8Q638.65-29.9 639.18-30.03 639.7-30.15 640.3-30.15L640.3-30.15Q641.35-30.15 641.88-29.73 642.4-29.3 642.4-28.35L642.4-28.35ZM675.2-11.35L658.4-9 658.2-12.15 673.3-14.2Q673.1-16.95 671.4-18.73 669.7-20.5 666.7-20.5L666.7-20.5Q663.6-20.5 661.58-18.28 659.55-16.05 659.55-11.9L659.55-11.9 659.55-10.8Q659.9-6.8 662.18-4.73 664.45-2.65 668.4-2.65L668.4-2.65Q670.5-2.65 672.2-3.35 673.9-4.05 674.9-4.85L674.9-4.85Q675.45-4.5 675.78-4.03 676.1-3.55 676.1-2.95L676.1-2.95Q676.1-2 675.03-1.18 673.95-0.35 672.18 0.15 670.4 0.65 668.2 0.65L668.2 0.65Q664.35 0.65 661.53-0.75 658.7-2.15 657.18-4.93 655.65-7.7 655.65-11.7L655.65-11.7Q655.65-14.55 656.48-16.78 657.3-19 658.78-20.55 660.25-22.1 662.3-22.93 664.35-23.75 666.75-23.75L666.75-23.75Q669.8-23.75 672.13-22.45 674.45-21.15 675.78-18.82 677.1-16.5 677.1-13.5L677.1-13.5Q677.1-12.4 676.6-11.93 676.1-11.45 675.2-11.35L675.2-11.35ZM697.65-27.1L697.65-14.9 703.4-14.9Q707.1-14.9 709.2-16.5 711.3-18.1 711.3-21.25L711.3-21.25Q711.3-24.35 709.1-25.95 706.9-27.55 702.8-27.55L702.8-27.55Q701.45-27.55 700.08-27.43 698.7-27.3 697.65-27.1L697.65-27.1ZM703.4-11.5L703.4-11.5 693.6-11.5 693.6-28.2Q693.6-29 694.03-29.43 694.45-29.85 695.25-30.1L695.25-30.1Q696.7-30.55 698.83-30.75 700.95-30.95 702.95-30.95L702.95-30.95Q709.2-30.95 712.3-28.4 715.4-25.85 715.4-21.25L715.4-21.25Q715.4-18.3 714.05-16.1 712.7-13.9 710.05-12.7 707.4-11.5 703.4-11.5ZM711.7-1.3L703.5-12.8 706.5-14.3Q707.9-12.55 709.4-10.65 710.9-8.75 712.3-6.95 713.7-5.15 714.8-3.73 715.9-2.3 716.5-1.5L716.5-1.5Q716.3-0.65 715.63-0.15 714.95 0.35 714.25 0.35L714.25 0.35Q713.4 0.35 712.85-0.08 712.3-0.5 711.7-1.3L711.7-1.3ZM693.6-1.6L693.6-12.6 697.7-12.6 697.7-0.1Q697.4 0 696.9 0.13 696.4 0.25 695.8 0.25L695.8 0.25Q694.7 0.25 694.15-0.2 693.6-0.65 693.6-1.6L693.6-1.6ZM743.8-11.55L743.8-11.55Q743.8-7.85 742.4-5.1 741-2.35 738.45-0.85 735.9 0.65 732.45 0.65L732.45 0.65Q729 0.65 726.43-0.85 723.85-2.35 722.45-5.1 721.05-7.85 721.05-11.55L721.05-11.55Q721.05-15.3 722.48-18.03 723.9-20.75 726.48-22.25 729.05-23.75 732.45-23.75L732.45-23.75Q735.85-23.75 738.4-22.25 740.95-20.75 742.38-18.03 743.8-15.3 743.8-11.55ZM732.45-20.45L732.45-20.45Q729.1-20.45 727.13-18.07 725.15-15.7 725.15-11.55L725.15-11.55Q725.15-7.35 727.08-5 729-2.65 732.45-2.65L732.45-2.65Q735.85-2.65 737.78-5.03 739.7-7.4 739.7-11.55L739.7-11.55Q739.7-15.7 737.78-18.07 735.85-20.45 732.45-20.45ZM760.3-23.75L760.3-23.75Q763.4-23.75 765.88-22.43 768.35-21.1 769.78-18.4 771.2-15.7 771.2-11.55L771.2-11.55Q771.2-7.35 769.73-4.65 768.25-1.95 765.65-0.65 763.05 0.65 759.6 0.65L759.6 0.65Q757.15 0.65 755.18 0.05 753.2-0.55 751.95-1.25L751.95-1.25Q750.9-1.95 750.5-2.55 750.1-3.15 750.1-4.2L750.1-4.2 750.1-20.85 754.1-20.85 754.1-4.2Q754.85-3.65 756.3-3.15 757.75-2.65 759.6-2.65L759.6-2.65Q763-2.65 765.08-4.8 767.15-6.95 767.15-11.55L767.15-11.55Q767.15-16.2 765.05-18.32 762.95-20.45 759.7-20.45L759.7-20.45Q757.7-20.45 756.15-19.68 754.6-18.9 753.6-17.9L753.6-17.9 752.85-21.15Q753.95-22 755.8-22.88 757.65-23.75 760.3-23.75ZM754.1-30.95L754.1-20.05 750.1-20.05 750.1-32.4Q750.35-32.5 750.88-32.63 751.4-32.75 752-32.75L752-32.75Q753.05-32.75 753.58-32.33 754.1-31.9 754.1-30.95L754.1-30.95ZM798.9-11.55L798.9-11.55Q798.9-7.85 797.5-5.1 796.1-2.35 793.55-0.85 791 0.65 787.55 0.65L787.55 0.65Q784.1 0.65 781.53-0.85 778.95-2.35 777.55-5.1 776.15-7.85 776.15-11.55L776.15-11.55Q776.15-15.3 777.58-18.03 779-20.75 781.58-22.25 784.15-23.75 787.55-23.75L787.55-23.75Q790.95-23.75 793.5-22.25 796.05-20.75 797.48-18.03 798.9-15.3 798.9-11.55ZM787.55-20.45L787.55-20.45Q784.2-20.45 782.23-18.07 780.25-15.7 780.25-11.55L780.25-11.55Q780.25-7.35 782.18-5 784.1-2.65 787.55-2.65L787.55-2.65Q790.95-2.65 792.88-5.03 794.8-7.4 794.8-11.55L794.8-11.55Q794.8-15.7 792.88-18.07 790.95-20.45 787.55-20.45ZM805.15-6.05L805.15-13.2 809.15-13.2 809.15-6.3Q809.15-4.3 810.3-3.48 811.45-2.65 813.45-2.65L813.45-2.65Q814.3-2.65 815.35-2.95 816.4-3.25 817.1-3.65L817.1-3.65Q817.4-3.35 817.65-2.9 817.9-2.45 817.9-1.85L817.9-1.85Q817.9-0.75 816.6-0.05 815.3 0.65 813 0.65L813 0.65Q809.5 0.65 807.33-0.9 805.15-2.45 805.15-6.05L805.15-6.05ZM816.3-19.3L807.2-19.3 807.2-22.6 817.35-22.6Q817.5-22.4 817.65-21.95 817.8-21.5 817.8-21L817.8-21Q817.8-20.2 817.4-19.75 817-19.3 816.3-19.3L816.3-19.3ZM809.15-28.35L809.15-11.7 805.15-11.7 805.15-29.8Q805.4-29.9 805.93-30.03 806.45-30.15 807.05-30.15L807.05-30.15Q808.1-30.15 808.63-29.73 809.15-29.3 809.15-28.35L809.15-28.35ZM823.35-30.4L823.35-30.4Q823.35-31.45 824.1-32.18 824.85-32.9 825.95-32.9L825.95-32.9Q827.1-32.9 827.8-32.18 828.5-31.45 828.5-30.4L828.5-30.4Q828.5-29.35 827.8-28.63 827.1-27.9 825.95-27.9L825.95-27.9Q824.85-27.9 824.1-28.63 823.35-29.35 823.35-30.4ZM823.95-1.55L823.95-13.2 827.95-13.2 827.95-0.1Q827.7 0 827.2 0.13 826.7 0.25 826.1 0.25L826.1 0.25Q825.05 0.25 824.5-0.18 823.95-0.6 823.95-1.55L823.95-1.55ZM827.95-21.5L827.95-11.25 823.95-11.25 823.95-23Q824.2-23.1 824.73-23.23 825.25-23.35 825.85-23.35L825.85-23.35Q826.9-23.35 827.43-22.93 827.95-22.5 827.95-21.5L827.95-21.5ZM846.45-20.4L846.45-20.4Q843.05-20.4 840.8-18.1 838.55-15.8 838.55-11.5L838.55-11.5Q838.55-7.25 840.73-4.95 842.9-2.65 846.45-2.65L846.45-2.65Q848.55-2.65 849.95-3.23 851.35-3.8 852.45-4.55L852.45-4.55Q853-4.25 853.35-3.8 853.7-3.35 853.7-2.7L853.7-2.7Q853.7-1.3 851.63-0.33 849.55 0.65 846.45 0.65L846.45 0.65Q843 0.65 840.28-0.68 837.55-2 836-4.7 834.45-7.4 834.45-11.5L834.45-11.5Q834.45-15.55 836.05-18.28 837.65-21 840.38-22.38 843.1-23.75 846.35-23.75L846.35-23.75Q849.45-23.75 851.48-22.7 853.5-21.65 853.5-20.3L853.5-20.3Q853.5-19.7 853.15-19.25 852.8-18.8 852.25-18.55L852.25-18.55Q851.15-19.3 849.83-19.85 848.5-20.4 846.45-20.4ZM867.9 0.7L867.9 0.7Q863.2 0.7 860.63-1.15 858.05-3 858.05-6.5L858.05-6.5Q858.05-9.75 860.23-11.48 862.4-13.2 866.25-13.55L866.25-13.55 873.35-14.25 873.35-15.65Q873.35-18.15 871.85-19.3 870.35-20.45 867.8-20.45L867.8-20.45Q865.75-20.45 863.88-19.85 862-19.25 860.55-18.5L860.55-18.5Q860.15-18.85 859.83-19.33 859.5-19.8 859.5-20.3L859.5-20.3Q859.5-21.6 860.95-22.3L860.95-22.3Q862.3-23 864.08-23.38 865.85-23.75 867.85-23.75L867.85-23.75Q872.2-23.75 874.75-21.8 877.3-19.85 877.3-15.65L877.3-15.65 877.3-3.8Q877.3-2.7 876.88-2.13 876.45-1.55 875.6-1.05L875.6-1.05Q874.4-0.4 872.4 0.15 870.4 0.7 867.9 0.7ZM867.9-2.6L867.9-2.6Q870-2.6 871.38-3.03 872.75-3.45 873.35-3.85L873.35-3.85 873.35-11.1 867.15-10.45Q864.55-10.25 863.3-9.3 862.05-8.35 862.05-6.55L862.05-6.55Q862.05-4.7 863.53-3.65 865-2.6 867.9-2.6ZM885-1.55L885-13.2 889-12.6 889-0.1Q888.75 0 888.25 0.13 887.75 0.25 887.15 0.25L887.15 0.25Q886.1 0.25 885.55-0.18 885-0.6 885-1.55L885-1.55ZM889-30.95L889-10.7 885-11.25 885-32.4Q885.25-32.5 885.78-32.63 886.3-32.75 886.85-32.75L886.85-32.75Q887.95-32.75 888.48-32.33 889-31.9 889-30.95L889-30.95ZM897.3-1.55L897.3-13.2 901.3-12.6 901.3-0.1Q901.05 0 900.55 0.13 900.05 0.25 899.45 0.25L899.45 0.25Q898.4 0.25 897.85-0.18 897.3-0.6 897.3-1.55L897.3-1.55ZM901.3-30.95L901.3-10.7 897.3-11.25 897.3-32.4Q897.55-32.5 898.08-32.63 898.6-32.75 899.15-32.75L899.15-32.75Q900.25-32.75 900.78-32.33 901.3-31.9 901.3-30.95L901.3-30.95ZM913.9-5.15L913.9-5.15Q913.05-6.75 911.85-9.47 910.65-12.2 909.38-15.58 908.1-18.95 906.95-22.45L906.95-22.45Q907.3-22.95 907.88-23.25 908.45-23.55 909.1-23.55L909.1-23.55Q909.95-23.55 910.5-23.1 911.05-22.65 911.4-21.6L911.4-21.6Q912.9-17.4 914.55-13.25 916.2-9.1 918.2-4.65L918.2-4.65 918.4-4.65Q919.45-6.75 920.6-9.9 921.75-13.05 922.8-16.55 923.85-20.05 924.55-23.15L924.55-23.15Q924.9-23.3 925.33-23.43 925.75-23.55 926.25-23.55L926.25-23.55Q927.1-23.55 927.65-23.13 928.2-22.7 928.2-21.85L928.2-21.85Q928.2-21.05 927.75-19.18 927.3-17.3 926.53-14.83 925.75-12.35 924.73-9.58 923.7-6.8 922.53-4.13 921.35-1.45 920.15 0.7L920.15 0.7Q917.85 4.95 915.95 7.23 914.05 9.5 912.45 9.5L912.45 9.5Q911.3 9.5 910.68 8.9 910.05 8.3 909.9 7.5L909.9 7.5Q911 6.55 912.38 4.98 913.75 3.4 915.03 1.58 916.3-0.25 917.1-1.9L917.1-1.9Q916.25-2.15 915.53-2.8 914.8-3.45 913.9-5.15Z" opacity="1" transform="matrix(1,0,0,1,0,0)" fill="black" class="slogan-text-1" id="SvgjsPath6253"></path></svg></g></svg></g></svg></g></svg></g></svg></g></svg></g></svg></g><path d="M194.576 91.613L194.576 28.02 3.417 28.02 3.417 219.18 194.576 219.18 194.576 155.587 191.6 155.587 191.6 216.204 6.393 216.204 6.393 30.996 191.6 30.996 191.6 91.613Z" fill="black" stroke="transparent"></path></svg></g><defs><mask></mask></defs></svg><rect width="395.52" height="247.2" fill="black" stroke="none" visibility="hidden"></rect></g></mask></svg><rect width="395.52" height="247.2" fill="black" stroke="none" visibility="hidden"></rect></g></mask><linearGradient x1="0" x2="1" y1="0.548" y2="0.55" id="b957891d-8f6d-4608-a618-5f79e6370e9b"><stop stop-color="#ff6cab" offset="0"></stop><stop stop-color="#7366ff" offset="1"></stop></linearGradient></svg><rect width="395.52" height="247.2" fill="none" stroke="none" visibility="hidden"></rect></g></svg></g></svg>